<?xml version="1.0" encoding="utf-8"?>
<svg version="1.1" width="808" height="350" xmlns="http://www.w3.org/2000/svg">
  <defs/>
  <path d="M 225.538 71.222 C 225.802 83.267 225.125 95.271 224.431 107.298 C 224.302 109.628 224.177 111.961 224.062 114.294 C 223.895 117.693 223.702 121.089 223.505 124.486 C 223.459 125.528 223.411 126.568 223.364 127.641 C 223.301 128.611 223.24 129.583 223.175 130.581 C 223.131 131.43 223.083 132.28 223.034 133.156 C 221.92 137.508 219.332 139.815 215.362 142.153 C 214.248 142.668 213.135 143.183 211.987 143.712 C 211.37 144 210.752 144.288 210.116 144.588 C 208.078 145.539 206.032 146.473 203.985 147.407 C 202.545 148.076 201.107 148.743 199.665 149.416 C 195.872 151.179 192.071 152.93 188.266 154.678 C 182.249 157.449 176.241 160.238 170.232 163.027 C 168.049 164.04 165.862 165.05 163.677 166.063 C 153.655 170.706 143.733 175.501 133.871 180.437 C 129.083 182.818 124.24 185.097 119.391 187.372 C 118.406 187.838 117.42 188.306 116.408 188.787 C 115.47 189.228 114.535 189.667 113.571 190.121 C 112.749 190.509 111.925 190.897 111.079 191.294 C 109.055 192.125 109.055 192.125 106.977 192.125 C 105.946 206.603 104.918 221.082 103.857 236.001 C 102.825 236.323 101.796 236.644 100.735 236.975 C 98.1 235.661 95.683 234.301 93.197 232.77 C 92.083 232.101 92.083 232.101 90.948 231.419 C 84.816 227.714 78.752 223.915 72.696 220.102 C 62.026 213.402 51.2 206.921 40.415 200.388 C 37.559 198.658 34.707 196.924 31.854 195.192 C 30.196 194.185 28.536 193.181 26.875 192.177 C 26.025 191.658 25.171 191.136 24.295 190.601 C 23.598 190.177 22.902 189.755 22.183 189.318 C 20.657 188.225 20.657 188.225 19.615 186.275 C 19.362 183.247 19.477 180.228 19.552 177.194 C 19.536 176.361 19.519 175.526 19.504 174.669 C 19.581 172.146 19.839 170.154 20.657 167.749 C 22.22 166.423 22.22 166.423 24.243 165.346 C 24.994 164.939 25.751 164.532 26.529 164.113 C 27.336 163.703 28.144 163.295 28.974 162.874 C 29.767 162.474 30.557 162.074 31.37 161.661 C 33.981 160.369 36.605 159.112 39.239 157.861 C 40.216 157.393 41.193 156.926 42.2 156.444 C 45.374 154.927 48.55 153.415 51.726 151.905 C 53.929 150.853 56.133 149.802 58.337 148.749 C 72.65 141.92 86.992 135.142 101.385 128.461 C 108.528 125.14 115.612 121.728 122.657 118.229 C 134.588 112.305 146.684 106.689 158.78 101.063 C 171.402 95.185 183.931 89.18 196.384 82.994 C 201.199 80.608 206.048 78.28 210.912 75.975 C 212.363 75.275 212.363 75.275 213.842 74.559 C 214.772 74.119 215.702 73.679 216.658 73.224 C 217.47 72.84 218.282 72.452 219.118 72.052 C 221.375 71.222 221.375 71.222 225.538 71.222 Z" fill="#F05F29" style=""/>
  <path d="M 168.336 216.499 C 168.653 229.428 168.093 242.29 167.36 255.196 C 167.294 256.417 167.294 256.417 167.222 257.664 C 167.093 260.033 166.954 262.403 166.813 264.774 C 166.773 265.478 166.732 266.181 166.692 266.904 C 166.566 268.956 166.411 271.003 166.257 273.051 C 166.216 273.819 166.177 274.588 166.135 275.38 C 166.05 276.534 166.05 276.534 165.961 277.712 C 165.919 278.407 165.875 279.1 165.831 279.816 C 164.687 283.559 161.832 285.299 158.366 287.206 C 157.349 287.671 156.336 288.134 155.287 288.614 C 154.133 289.147 152.976 289.68 151.785 290.232 C 151.172 290.509 150.559 290.789 149.925 291.074 C 147.994 291.953 146.067 292.842 144.142 293.732 C 139.363 295.944 134.575 298.138 129.784 300.332 C 125.731 302.184 121.68 304.049 117.636 305.922 C 115.742 306.797 113.843 307.66 111.944 308.522 C 110.79 309.056 109.636 309.589 108.45 310.139 C 106.927 310.837 106.927 310.837 105.373 311.547 C 102.671 313.112 101.299 314.37 99.695 316.926 C 99.3 319.443 99.069 321.761 98.974 324.285 C 98.914 325.353 98.914 325.353 98.854 326.441 C 98.731 328.714 98.627 330.986 98.525 333.258 C 98.412 335.517 98.296 337.775 98.176 340.033 C 98.102 341.435 98.035 342.837 97.971 344.237 C 97.748 348.832 97.233 353.325 96.576 357.878 C 91.534 357.36 87.866 355.104 83.706 352.576 C 82.973 352.138 82.24 351.7 81.485 351.249 C 76.041 347.985 70.656 344.638 65.29 341.261 C 59.913 337.875 54.495 334.551 49.061 331.248 C 48.195 330.722 47.33 330.194 46.437 329.65 C 42.775 327.422 39.11 325.197 35.445 322.972 C 33.521 321.805 31.594 320.637 29.671 319.465 C 27.861 318.367 26.051 317.268 24.239 316.17 C 23.424 315.674 22.603 315.177 21.762 314.665 C 21.045 314.23 20.327 313.794 19.588 313.346 C 18.91 312.919 18.233 312.491 17.536 312.051 C 16.774 311.597 16.009 311.141 15.225 310.673 C 13.375 309.127 13.375 309.127 12.854 307.26 C 12.857 306.572 12.857 305.883 12.86 305.174 C 12.858 304.411 12.858 303.653 12.857 302.869 C 12.877 302.078 12.898 301.288 12.921 300.473 C 12.912 299.691 12.906 298.908 12.898 298.1 C 12.952 293.406 13.223 290.471 16.495 286.701 C 19.708 284.737 23.117 283.214 26.571 281.662 C 27.58 281.194 28.595 280.726 29.634 280.244 C 32.874 278.749 36.124 277.269 39.376 275.793 C 43.603 273.853 47.826 271.909 52.052 269.963 C 53.097 269.483 54.142 269.002 55.218 268.509 C 62.532 265.142 69.758 261.644 76.95 258.059 C 85.012 254.047 93.172 250.232 101.347 246.43 C 118.088 238.653 118.088 238.653 134.665 230.578 C 141.333 227.254 148.022 223.976 154.751 220.764 C 156.075 220.124 156.075 220.124 157.423 219.468 C 158.247 219.079 159.07 218.69 159.915 218.289 C 160.639 217.944 161.361 217.597 162.108 217.239 C 164.176 216.499 164.176 216.499 168.336 216.499 Z" fill="#F05F2A" style=""/>
  <path d="M 528.177 194.075 C 534.021 198.804 536.916 204.626 538.578 211.625 C 538.721 214.158 538.786 216.606 538.749 219.135 C 538.74 220.211 538.74 220.211 538.729 221.308 C 538.623 229.753 538.084 238.175 537.538 246.603 C 535.998 265.089 535.998 265.089 538.123 283.41 C 538.67 285.805 539.169 288.187 539.617 290.602 C 537.017 293.039 530.238 291.9 526.748 291.941 C 525.637 291.979 524.529 292.015 523.383 292.052 C 520.389 292.084 517.608 292.056 514.657 291.577 C 511.361 288.295 510.635 284.212 509.457 279.876 C 508.827 280.322 508.199 280.77 507.547 281.232 C 490.573 292.886 470.726 295.215 450.207 292.345 C 441.3 290.864 432.112 287.569 426.255 280.851 C 420.022 271.769 419.381 264.098 421.357 253.66 C 423.65 244.253 429.465 238.669 438.1 233.556 C 450.002 227.552 463.181 226.085 476.499 226.154 C 477.504 226.157 478.508 226.158 479.545 226.159 C 482.734 226.164 485.923 226.177 489.113 226.189 C 491.284 226.194 493.455 226.198 495.628 226.203 C 500.93 226.213 506.233 226.229 511.536 226.251 C 511.575 224.372 511.601 222.496 511.623 220.617 C 511.639 219.57 511.653 218.526 511.67 217.449 C 511.474 213.164 509.949 210.444 507.091 207.192 C 499.865 201.489 487.074 202.288 478.256 202.849 C 471.405 203.629 465.414 205.056 459.797 209.004 C 457.961 211.153 457.961 211.153 456.418 216.499 C 447.836 216.499 439.258 216.499 430.419 216.499 C 431.687 205.781 433.695 200.619 442.341 193.899 C 464.158 179.212 506.779 178.493 528.177 194.075 Z M 449.853 251.233 C 446.573 255.559 446.526 259.07 447.057 264.276 C 448.882 268.327 451.449 270.679 455.377 273.051 C 468.306 276.656 482.544 276.464 494.896 271.1 C 501.408 267.561 508.387 263.588 510.497 256.475 C 510.757 253.949 510.962 251.454 511.105 248.923 C 511.151 248.243 511.193 247.563 511.237 246.862 C 511.343 245.192 511.441 243.521 511.536 241.85 C 506.156 241.776 500.774 241.725 495.396 241.689 C 493.571 241.675 491.745 241.655 489.922 241.63 C 467.895 240.969 467.895 240.969 449.853 251.233 Z" fill="#404040" style=""/>
  <path d="M 309.778 147.274 C 346.5 147.274 383.22 147.274 421.058 147.274 C 421.058 159.95 421.058 159.95 420.016 167.749 C 392.216 167.749 364.419 167.749 335.777 167.749 C 335.433 176.758 335.09 185.767 334.739 195.049 C 334.394 200.197 334.051 205.347 333.697 210.649 C 357.72 210.649 381.745 210.649 406.497 210.649 C 406.497 225.276 406.497 225.276 405.456 231.125 C 381.433 231.125 357.408 231.125 332.657 231.125 C 331.67 249.926 331.67 249.926 330.697 268.725 C 330.573 271.078 330.447 273.429 330.323 275.783 C 330.26 277.009 330.198 278.235 330.133 279.501 C 330.069 280.668 330.006 281.835 329.941 283.039 C 329.887 284.054 329.835 285.069 329.78 286.116 C 329.538 288.652 329.538 288.652 328.496 291.577 C 324.184 291.605 319.874 291.622 315.562 291.637 C 314.329 291.645 313.1 291.654 311.83 291.662 C 310.662 291.664 309.492 291.669 308.285 291.672 C 306.661 291.679 306.661 291.679 305.001 291.688 C 302.498 291.577 302.498 291.577 301.456 290.602 C 301.48 287.991 301.576 285.413 301.719 282.806 C 301.758 281.988 301.795 281.168 301.84 280.324 C 301.976 277.578 302.12 274.833 302.265 272.087 C 302.364 270.15 302.462 268.212 302.559 266.272 C 302.875 260.081 303.204 253.892 303.536 247.699 C 303.59 246.698 303.644 245.696 303.699 244.665 C 304.396 231.706 305.121 218.746 305.857 205.789 C 306.148 200.658 306.436 195.528 306.725 190.397 C 306.951 186.372 307.178 182.347 307.409 178.323 C 307.516 176.429 307.621 174.533 307.729 172.639 C 307.872 170.018 308.023 167.398 308.174 164.777 C 308.215 164.021 308.256 163.263 308.299 162.48 C 308.599 157.367 309.172 152.383 309.778 147.274 Z" fill="#424242" style=""/>
  <path d="M 646.738 189.199 C 647.651 189.622 648.567 190.044 649.509 190.48 C 656.697 194.138 660.896 198.53 664.744 205.226 C 667.455 214.703 667.455 214.703 665.457 218.451 C 656.877 218.451 648.297 218.451 639.459 218.451 C 638.428 214.106 638.428 214.106 637.378 209.675 C 634.17 205.632 630.454 204.29 625.292 203.303 C 614.646 201.93 601.481 201.301 591.616 205.774 C 588.775 208.067 587.608 209.19 586.548 212.6 C 586.407 215.781 586.641 216.823 588.498 219.425 C 598.614 225.344 611.676 226.572 623.199 228.594 C 655.209 234.269 655.209 234.269 663.654 245.56 C 667.846 252.449 668.503 260.346 666.34 267.958 C 662.561 277.249 654.947 284.069 645.568 288.407 C 624.681 296.595 597.115 296.853 575.732 289.81 C 567.147 286.303 559.21 280.753 555.063 272.674 C 554.103 269.913 553.718 267.413 553.463 264.519 C 553.373 263.579 553.283 262.64 553.191 261.67 C 553.173 260.922 553.154 260.173 553.14 259.401 C 554.177 258.426 554.177 258.426 556.684 258.316 C 558.307 258.324 558.307 258.324 559.966 258.33 C 561.136 258.333 562.307 258.336 563.508 258.34 C 564.742 258.348 565.972 258.356 567.243 258.364 C 568.477 258.368 569.714 258.373 570.987 258.378 C 574.048 258.39 577.114 258.405 580.177 258.426 C 580.302 259.031 580.427 259.64 580.553 260.264 C 580.729 261.056 580.901 261.852 581.079 262.668 C 581.247 263.456 581.413 264.244 581.588 265.055 C 582.623 268.37 584.298 269.427 587.456 271.1 C 593.208 273.703 598.796 274.673 605.139 275.001 C 605.861 275.041 606.59 275.081 607.336 275.123 C 617.015 275.388 628.309 274.696 636.337 269.15 C 639.226 266.113 639.477 264.832 639.328 260.741 C 638.395 257.369 638.049 256.625 635.297 254.526 C 625.684 250.044 614.622 248.737 604.153 246.944 C 588.906 244.307 572.712 241.076 562.497 229.175 C 558.924 223.133 558.367 216.665 560.023 210.003 C 563.017 200.942 568.17 195.776 577.008 191.255 C 596.985 181.66 626.192 179.472 646.738 189.199 Z" fill="#414141" style=""/>
  <path d="M 697.699 161.9 C 706.279 161.9 714.858 161.9 723.697 161.9 C 723.697 170.532 723.388 178.692 722.657 187.249 C 731.926 187.249 741.191 187.249 750.737 187.249 C 750.759 190.125 750.779 193.001 750.804 195.963 C 750.811 196.871 750.821 197.777 750.831 198.713 C 750.833 199.423 750.836 200.134 750.841 200.865 C 750.845 201.595 750.849 202.325 750.857 203.078 C 750.737 204.798 750.737 204.798 749.698 205.774 C 747.618 205.861 745.536 205.879 743.454 205.872 C 742.19 205.867 740.925 205.864 739.625 205.861 C 738.295 205.852 736.963 205.845 735.592 205.835 C 734.258 205.831 732.923 205.827 731.548 205.821 C 728.237 205.811 724.927 205.795 721.616 205.774 C 720.001 232.757 720.001 232.757 719.212 259.765 C 719.186 261.011 719.186 261.011 719.158 262.282 C 719.162 265.463 719.3 267.764 720.923 270.59 C 724.336 273.512 727.948 273.182 732.342 273.172 C 734.074 273.177 734.074 273.177 735.841 273.18 C 739.162 273.057 742.276 272.658 745.538 272.075 C 745.652 278.645 745.226 285.044 744.497 291.577 C 732.931 294.736 716.983 296.147 705.952 290.849 C 705.289 290.446 704.623 290.042 703.939 289.627 C 703.252 289.212 702.565 288.799 701.857 288.374 C 695.372 283.824 692.801 277.429 691.458 270.125 C 691.044 262.302 691.664 254.434 692.139 246.622 C 692.209 245.447 692.278 244.27 692.351 243.061 C 692.569 239.347 692.793 235.632 693.017 231.917 C 693.168 229.384 693.318 226.847 693.469 224.313 C 693.834 218.133 694.204 211.954 694.577 205.774 C 687.371 205.774 680.164 205.774 672.737 205.774 C 671.658 201.731 671.795 198.397 672.152 194.317 C 672.346 191.985 672.539 189.652 672.737 187.249 C 684.064 186.767 684.064 186.767 695.618 186.275 C 695.917 180.807 695.917 180.807 696.207 175.338 C 696.248 174.642 696.288 173.946 696.329 173.23 C 696.367 172.53 696.405 171.83 696.443 171.11 C 696.721 168.027 697.232 164.964 697.699 161.9 Z" fill="#3F3F3F" style=""/>
  <path d="M 434.576 236.975 C 433.079 240.252 431.199 242.427 428.339 244.775 C 427.651 244.775 426.964 244.775 426.255 244.775 C 427.836 241.324 430.16 236.975 434.576 236.975 Z" fill="#858585" style=""/>
</svg>