<svg viewBox="0 0 119 48" fill="none" xmlns="http://www.w3.org/2000/svg"><g clip-path="url(#a)"><mask id="b" style="mask-type:alpha" maskUnits="userSpaceOnUse" x="0" y="0" width="296" height="120"><path fill="#C4C4C4" d="M0 0h296v120H0z"/></mask><g mask="url(#b)"><path d="M80.327 13.277a2.923 2.923 0 0 1 2.919-2.919V7.44a5.838 5.838 0 0 0-5.838 5.838v9.045h2.919v-9.045ZM8.765 13.277v9.045h2.915v-9.045a2.919 2.919 0 0 1 5.838 0v9.045h2.918v-9.045a5.833 5.833 0 0 0-10.212-3.86 5.838 5.838 0 0 0-10.216 3.86v9.045h2.915v-9.045a2.923 2.923 0 0 1 5.842 0ZM44.968 22.322v-2.92a2.919 2.919 0 0 1-2.92-2.918V0H39.13v16.484a5.838 5.838 0 0 0 5.838 5.838ZM55.67 13.277v9.045h2.92v-9.045a5.838 5.838 0 0 0-8.758-5.055V.036h-2.919v22.298h2.92v-9.057a2.919 2.919 0 0 1 5.837 0ZM29.781 22.322a7.403 7.403 0 0 0 5.956-3.004l-2.348-1.736a4.492 4.492 0 0 1-7.853-1.216h11.502a7.431 7.431 0 0 0 0-2.93 7.407 7.407 0 0 0-14.518 0 7.635 7.635 0 0 0 0 2.93 7.41 7.41 0 0 0 7.261 5.94v.016Zm0-11.911a4.488 4.488 0 0 1 4.24 3.024h-8.485a4.492 4.492 0 0 1 4.245-3.024ZM75.462 14.878a7.438 7.438 0 1 0-14.877.008 7.438 7.438 0 0 0 14.877-.008Zm-7.439 4.525a4.524 4.524 0 1 1 0-9.048 4.524 4.524 0 0 1 0 9.048ZM44.663 38.753v9.04h2.92v-9.04a2.923 2.923 0 0 1 2.918-2.92v-2.918a5.838 5.838 0 0 0-5.837 5.838ZM58.845 33.057a7.374 7.374 0 0 0-7.225 8.83 7.37 7.37 0 0 0 13.152 2.918l-2.336-1.723a4.46 4.46 0 0 1-7.816-1.196H66.07c.19-.963.19-1.955 0-2.918a7.374 7.374 0 0 0-7.224-5.911Zm-4.225 5.91a4.459 4.459 0 0 1 8.445 0H54.62ZM71.112 32.988h-2.919v14.81h2.92v-14.81ZM80.522 32.915a7.44 7.44 0 1 0 0 14.879 7.44 7.44 0 0 0 0-14.88Zm0 11.963a4.525 4.525 0 1 1 0-9.05 4.525 4.525 0 0 1 0 9.05ZM29.558 38.91h-2.181a1.528 1.528 0 1 1 0-3.052h4.496v-2.915h-4.496a4.46 4.46 0 1 0 0 8.883h2.181a1.53 1.53 0 1 1 0 3.052H23.53v2.915h6.028a4.46 4.46 0 1 0 0-8.882ZM39.766 25.476h-2.919v7.439H34.01v2.919h2.837v6.117a5.838 5.838 0 0 0 5.838 5.838V44.87a2.919 2.919 0 0 1-2.919-2.919V35.83h2.92v-2.92h-2.92v-7.434ZM18.09 33.547A7.397 7.397 0 0 0 8.676 43.86a7.4 7.4 0 0 0 9.412 3.306v.588h2.903V35.769a7.399 7.399 0 0 0-2.903-2.222Zm0 10.245a4.5 4.5 0 1 1 0-6.892v6.892ZM0 38.753v9.04h2.915v-9.04a2.923 2.923 0 0 1 2.923-2.92v-2.918A5.838 5.838 0 0 0 0 38.753Z" fill="#00519D"/><path d="M99.17 7.31h-.06a6.717 6.717 0 0 0 0 13.43h.06a6.717 6.717 0 1 0 0-13.43Zm-.028 10.743a4.03 4.03 0 1 1 4.001-4.03 4.054 4.054 0 0 1-4.001 4.03Z" fill="#2BC866"/><path d="m117.791 43.014-5.242-9.982a1.347 1.347 0 0 0-.726-.725l-5.874-2.311 5.229-9.008a14.057 14.057 0 0 0-1.99-16.74l-2.688-2.16a14.316 14.316 0 0 0-14.728 0l-2.684 2.16a14.088 14.088 0 0 0-1.958 16.72l5.234 9.008-5.875 2.31h-.02c.787.585 1.486 1.28 2.076 2.064l5.18-2.027.325.56 1.597 2.748a3.99 3.99 0 0 0 3.483 2.027 3.99 3.99 0 0 0 3.486-2.027l1.918-3.304 5.72 2.25 5.043 9.478-6.892-2.432a1.333 1.333 0 0 0-.977.032l-7.78 3.361a1.476 1.476 0 0 1-.526.11c-.184 0-.366-.037-.535-.11l-7.776-3.36a1.415 1.415 0 0 0-.357-.098 9.89 9.89 0 0 1-.843 2.988l.616-.215 3.085 1.33 4.237 1.804a4.054 4.054 0 0 0 3.194 0l7.298-3.15 6.385 2.258a2.683 2.683 0 0 0 3.377-3.56h-.012Zm-17.486-8.745a1.328 1.328 0 0 1-2.31 0l-8.6-14.854a11.18 11.18 0 0 1-.9-1.987c-.044-.137-.088-.28-.125-.405 0-.045-.032-.093-.052-.138a11.213 11.213 0 0 1-.159-5.408 1.34 1.34 0 0 0 .207-.426 11.12 11.12 0 0 1 2.907-4.942l.182-.182a10.861 10.861 0 0 1 15.386 0l.182.182a11.083 11.083 0 0 1 2.907 4.942c.045.153.114.297.206.426.394 1.788.34 3.646-.158 5.408 0 .045-.036.093-.048.138-.041.142-.081.284-.126.405-.234.69-.536 1.356-.9 1.987l-8.599 14.854Z" fill="#2BC866"/></g></g><defs><clipPath id="a"><path fill="#fff" d="M0 0h118.4v48H0z"/></clipPath></defs></svg>
