<svg viewBox="0 0 240 240" fill="none" xmlns="http://www.w3.org/2000/svg"><g clip-path="url(#a)"><path d="m167.291 238.125-44.743-48.488a2.805 2.805 0 0 0-4.156.058l-43.687 49.341a2.785 2.785 0 0 1-1.445.885 2.786 2.786 0 0 1-2.999-1.196 2.784 2.784 0 0 1-.44-1.637l2.657-65.926a2.8 2.8 0 0 0-1.83-2.724 2.805 2.805 0 0 0-1.148-.169l-65.833 4.073a2.786 2.786 0 0 1-2.756-1.681 2.781 2.781 0 0 1 .69-3.154l48.464-44.725a2.796 2.796 0 0 0 .906-2.088 2.804 2.804 0 0 0-.942-2.073L.675 74.931a2.781 2.781 0 0 1 1.947-4.882l65.935 2.666a2.805 2.805 0 0 0 2.892-2.977L67.366 3.912A2.78 2.78 0 0 1 72.2 1.848l44.738 48.465a2.782 2.782 0 0 0 4.139-.03L164.787.937a2.779 2.779 0 0 1 4.415.332c.312.482.467 1.048.445 1.62l-2.633 65.922a2.804 2.804 0 0 0 2.955 2.898l65.855-4.078a2.782 2.782 0 0 1 2.066 4.834l-48.551 44.868a2.779 2.779 0 0 0 .054 4.132l49.354 43.69a2.777 2.777 0 0 1 .766 3.135 2.777 2.777 0 0 1-2.714 1.747l-65.928-2.643a2.81 2.81 0 0 0-2.1.839 2.793 2.793 0 0 0-.798 2.115l4.089 65.849a2.783 2.783 0 0 1-3.351 2.707 2.782 2.782 0 0 1-1.42-.779Z" fill="url(#b)" fill-opacity=".5"/><path fill-rule="evenodd" clip-rule="evenodd" d="M235.669 76.962H7.781a2.366 2.366 0 0 0-2.366 2.366v30.753a2.366 2.366 0 0 0 2.366 2.366h227.888a2.366 2.366 0 0 0 2.365-2.366V79.328a2.365 2.365 0 0 0-2.365-2.366ZM7.781 76.174a3.154 3.154 0 0 0-3.154 3.154v30.753a3.154 3.154 0 0 0 3.154 3.154h227.888a3.154 3.154 0 0 0 3.154-3.154V79.328a3.154 3.154 0 0 0-3.154-3.154H7.781Z" fill="#C4C4C4"/><path fill-rule="evenodd" clip-rule="evenodd" d="M216.744 105.35V84.06h.788v21.29h-.788Z" fill="#C4C4C4"/><path d="m27.025 108.349-5.084-3.058 6.356-8.98-9.477-3.639 2.08-5.496 9.091 4.877-.962-11.148h6.51l-1.04 11.148 9.129-4.877 2.003 5.496-9.476 3.871 6.433 8.903-5.2 3.058-5.162-10.103-5.2 9.948ZM150.037 108.349l-5.084-3.058 6.356-8.98-9.476-3.639 2.08-5.496 9.091 4.877-.964-11.148h6.51l-1.04 11.148 9.13-4.877 2.003 5.496-9.476 3.871 6.433 8.903-5.201 3.058-5.161-10.103-5.201 9.948ZM76.703 108.349l-5.084-3.058 6.356-8.98-9.477-3.639 2.08-5.496 9.091 4.877-.963-11.148h6.51l-1.04 11.148 9.13-4.877 2.003 5.496-9.476 3.871 6.433 8.903-5.2 3.058-5.163-10.103-5.2 9.948ZM183.945 108.349l-5.085-3.058 6.356-8.98-9.476-3.639 2.08-5.496 9.091 4.877-.963-11.148h6.51l-1.041 11.148 9.13-4.877 2.003 5.496-9.476 3.871 6.433 8.903-5.2 3.058-5.162-10.103-5.2 9.948ZM61.402 80.905l-.582 16.56h-7.466l-.626-16.56h8.674ZM61.402 104.167a4.337 4.337 0 1 1-8.675 0 4.337 4.337 0 0 1 8.675 0Z" fill="#FFCE00"/><path d="M157.496 55.493c-6.678-3.339-14.608-14.26-17.739-19.304l-4.695 5.74c-1.913 17.912-5.426 53.843-4.174 54.26 1.565.522 15.13 22.956 35.478 18.261 16.278-3.757 13.043-10.261 9.391-13.044-1.043-3.13-12.521-4.695-5.217-12.521 7.304-7.827-4.696-11.479-8.87-12.522-4.174-1.044-2.608-6.261 1.566-8.87 4.173-2.608 2.608-7.826-5.74-12ZM90.714 45.58c.417-4.173 4.695-7.826 7.304-8.87l8.348-5.738 13.043 65.217c-9.565 7.652-31.304 22.852-41.739 22.435-13.043-.522-13.043-9.913-7.304-10.435 5.739-.522 2.087-7.826-3.652-8.348-5.74-.521-10.435-8.87 1.565-12 12-3.13 9.391-8.87 6.782-16.174-2.608-7.304 6.261-7.826 13.044-9.913 6.783-2.087 2.087-10.956 2.609-16.174Z" fill="#3B3F51"/><path d="M118.403 29.601c-6.047-4.46-12.478 1.364-17.198 5.326a20.39 20.39 0 0 0-7.152 16.361c.188 3.94 1.444 8.177-.425 11.627-1.155 2.1-3.277 3.45-5.168 4.929-1.89 1.48-3.73 3.413-3.86 5.81-.116 2.129 1.147 4.099 1.298 6.22a6.293 6.293 0 0 1-5.954 6.496 8.271 8.271 0 0 0 13.28.08l.151 4.553a7.109 7.109 0 0 0 6.871-1.046 3.787 3.787 0 0 0 2.093 3.385 9.836 9.836 0 0 0 4.048.981 63.833 63.833 0 0 0 20.929-1.912c2.779-.722 5.709-1.697 7.42-3.992 3.197-4.33.793-11.207 4.387-15.155 1.761-1.949 4.576-2.656 6.373-4.561 2.425-2.57 2.396-6.496 2.093-10.04-.447-5.296-1.198-10.637-3.233-15.552-2.035-4.914-5.471-9.382-10.212-11.814-4.742-2.432-12.269-3.919-16.556-.722" fill="#3B3F51"/><path d="m109.967 91.458-20.612 6.495s22.459 31.423 32.758 28.464c10.299-2.959 34.721-30.362 34.721-30.362l-21.889-5.774-24.978 1.177Z" fill="#C46845"/><path fill-rule="evenodd" clip-rule="evenodd" d="M98.018 94.651c8.87 4.035 29.739 9.052 42.261-3.158 3.156.411 8.555 1.46 13.409 3.188-1.195.658-1.931 1.558-1.931 2.552 0 2.017 3.037 3.652 6.783 3.652.935 0 1.826-.102 2.637-.287a82.043 82.043 0 0 1-4.229 4.54l-3.369 22.891s1.725 2.759.664 7.018c-1.429 5.736-2.461 25.923-2.461 25.923l8.249 12.405-3.724 3.924s-16.527 5.838-17.458 6.078l-.12.032c-1.493.392-11.668 3.069-21.018 1.519-3.984-.663-27.468-5.227-27.468-5.227.007-2.723 3.334-11.851 5.838-18.403l-9.24-57.444a59.424 59.424 0 0 1-2.91-2.888c.14-.423.759-1.12 2.129-1.965l-.082-.513 2.599-.792c2.164-.966 5.219-2.023 9.441-3.045Z" fill="#FAFAFA"/><path d="M102.714 93.58c-20.348 0-23.816 14.302-25.566 17.739l21.73-10.68 3.836-7.059Z" fill="#FAFAFA"/><path d="M139.236 90.972c-11.27 13.356-29.044 7.13-36 2.608-6.261-.521-9.392 4.522-10.957 7.305l36 15.652 38.609-10.435c-4.592-10.017-20.87-14.956-27.652-15.13Z" fill="#FAFAFA"/><path d="M85.956 98.958c-.015-.075-.015-.067 0 0Z" fill="#2BC866"/><path d="M85.956 98.956c-.202.145-7.563 5.702-13.64 23.629a148.57 148.57 0 0 0-4.922 17.479l25 .809 2.511-10.66c-.62-1.544-8.639-29.885-8.949-31.257Z" fill="#FAFAFA"/><path d="M94.92 130.148v.065c.021.102.029.102 0-.065Z" fill="#2BC866"/><path d="M164.801 102.972c5.706 4.5 3.286 3.841 5.688 10.7a113.542 113.542 0 0 1 5.383 20.713l-21.831 2.331-2.244-9.722v-18.805l13.004-5.217Z" fill="#FAFAFA"/><path opacity=".3" d="M131.474 124.439c-.585-3.897-4.489-6.74-8.423-6.935-3.933-.195-7.722 1.819-10.529 4.576-2.808 2.756-4.814 6.221-6.77 9.634-4.157 7.217-6.979 12.608-11.136 19.854l.39 3.284a48.797 48.797 0 0 0 11.706-14.297c1.443-2.584 2.706-5.326 4.633-7.578 1.927-2.251 4.749-4.005 7.708-3.76 2.165.173 4.633 1.278 6.25-.159.65-.577 1.046-1.515 1.884-1.753.837-.239 1.804.425 2.706.281 1.313-.159 1.775-1.847 1.581-3.147ZM100.166 174.027a42.527 42.527 0 0 0 26.234 3.436c2.208-.426 4.467-1.076 6.127-2.584.996-.909 1.732-2.093 2.815-2.887 1.847-1.371 4.395-1.393 6.632-.844 2.237.548 4.33 1.595 6.546 2.208 2.216.614 5.319.455 7.275-.721-6.777-3.017-14.131-5.774-20.93-8.762a3.317 3.317 0 0 0-1.746-.418c-.909.122-1.53.952-2.165 1.645-2.468 2.786-6.221 4.114-9.909 4.626-3.688.513-7.441.296-11.15.577-3.71.282-7.528 1.119-10.472 3.407" fill="#3B3F51"/><path d="M92.422 127.427a5.57 5.57 0 0 1-.151-.981 43.465 43.465 0 0 0-.404-2.678 38.508 38.508 0 0 0-.903-3.89 41.805 41.805 0 0 0-1.652-4.611 43.554 43.554 0 0 0-2.23-4.331 39.683 39.683 0 0 0-2.223-3.327 37.05 37.05 0 0 0-1.674-2.121 5.473 5.473 0 0 1-.614-.787c.261.206.503.436.722.686.627.654 1.22 1.341 1.775 2.056a33.445 33.445 0 0 1 2.31 3.313 38.136 38.136 0 0 1 2.28 4.388 38.572 38.572 0 0 1 1.638 4.662c.353 1.297.632 2.612.838 3.941.14.896.234 1.8.281 2.706.036.324.038.65.007.974ZM160.955 114.032c-.021.133-.06.261-.116.383-.115.274-.245.621-.411 1.046-.368.903-.88 2.223-1.487 3.862a131.434 131.434 0 0 0-1.963 5.773c-.685 2.165-1.335 4.655-1.934 7.253-1.191 5.189-1.876 9.974-2.331 13.431-.202 1.696-.375 3.089-.498 4.114-.058.447-.101.815-.137 1.111a1.333 1.333 0 0 1-.079.39 2.63 2.63 0 0 1 0-.397c0-.296.043-.671.072-1.119.065-.981.195-2.389.382-4.128a118.06 118.06 0 0 1 2.223-13.488 102.06 102.06 0 0 1 1.97-7.268 75.905 75.905 0 0 1 2.043-5.774c.642-1.602 1.191-2.937 1.602-3.825.195-.411.346-.721.476-1.024a1.45 1.45 0 0 1 .188-.34Z" fill="#3B3F51"/><path opacity=".3" d="M153.947 136.578a15.956 15.956 0 0 0 4.792-17.089 73.833 73.833 0 0 0-4.813 17.385" fill="#3B3F51"/><path d="M90.207 179.462s-23.282-10.176-30.088-10.429c-5.817-.188-15.805 2.425-18.67 8.596-2.865 6.17-1.992 14.556 0 17.717 1.992 3.161 22.964 13.236 33.017 17.112 10.054 3.875 41.765 12.485 41.765 12.485l44.5-2.887s13.113-11.294 15.12-13.589c2.006-2.295 15.437-14.889 16.866-16.902 1.429-2.014 5.333-14.492 1.032-19.371-4.302-4.879-7.087-7.96-13.294-7.52-6.206.44-10.407 1.184-18.194 6.871-5.983 4.373-8.415 6.047-14.484 7.433-6.07 1.386-18 4.922-27.67 4.128-9.671-.794-29.9-3.644-29.9-3.644ZM100.627 130.102c1.252-9.225-2.957-27.64-5.218-35.694 1.67-2.197 5.218-2.014 6.783-1.647 2.922 3.514 5.043 26.358 5.739 37.341h-7.304ZM144.192 128.015c-1.565-9.225 3.696-27.64 6.522-35.694-2.087-2.197-6.522-2.013-8.479-1.647-3.652 3.514-6.304 26.358-7.173 37.341h9.13Z" fill="#2BC866"/><path d="M146.018 134.276c-2.922-1.252-31.826-.522-45.913 0-4.174.146-1.565 18.261-1.565 25.044 0 5.426-2.783 6.087-4.174 5.739l-5.74 16.174c1.74.521 9.079 2.295 24.523 5.217 15.443 2.922 39.478-6.609 48.521-11.478l-10.956-13.044c-3.757 0-2.957-11.478-2.087-17.217.348-2.957.313-9.183-2.609-10.435Z" fill="#2BC866"/><circle cx="104.801" cy="132.189" r="4.174" fill="#C4C4C4"/><circle cx="139.235" cy="131.146" r="4.174" fill="#C4C4C4"/><path d="M68.361 178.119s.072 0 .202.08l.57.26 2.165 1.06 7.939 3.955a849.771 849.771 0 0 1 11.699 6.005l14.217 7.542 19.241 10.219.137.072-.065.137-6.366 12.709-1.782 3.544-.477.924a2.782 2.782 0 0 1-.173.317c.03-.118.074-.231.13-.339.108-.231.246-.549.433-.945l1.703-3.609c1.516-3.096 3.652-7.484 6.229-12.76l.065.21-19.263-10.176c-5.051-2.678-9.865-5.204-14.21-7.564-4.344-2.36-8.328-4.33-11.655-6.069l-7.874-4.063-2.165-1.119-.549-.303-.151-.087ZM155.275 180.277s-.05.051-.159.123l-.483.325c-.426.288-1.061.721-1.891 1.205-1.667 1.018-4.085 2.475-7.217 4.013a59.167 59.167 0 0 1-11.446 4.33 47.064 47.064 0 0 1-7.138 1.263 52.375 52.375 0 0 1-7.772.115 70.015 70.015 0 0 1-14.781-2.591 120.29 120.29 0 0 1-11.547-3.976 257.273 257.273 0 0 1-7.614-3.168l-2.057-.91-.527-.245-.18-.094a.7.7 0 0 1 .195.058l.541.209 2.086.844c1.804.722 4.41 1.805 7.657 3.06 3.248 1.256 7.145 2.664 11.547 3.89a70.592 70.592 0 0 0 14.701 2.57c2.571.152 5.15.116 7.715-.109a46.233 46.233 0 0 0 7.087-1.226 60.624 60.624 0 0 0 11.418-4.258c3.132-1.502 5.571-2.923 7.253-3.898l1.934-1.147.505-.289.173-.094Z" fill="#3B3F51"/><path d="M123.665 203.812a2.42 2.42 0 0 1-.159-.722 18.89 18.89 0 0 1-.224-1.999 48.766 48.766 0 0 1 .044-6.632c.173-2.577.396-4.908.534-6.589.031-.916.115-1.83.252-2.736.049.238.066.48.051.722 0 .469 0 1.155-.044 2.006-.065 1.696-.245 4.027-.418 6.604-.173 2.576-.217 4.9-.159 6.589.058 1.689.18 2.75.123 2.757ZM118.822 189.349a20.045 20.045 0 0 1-1.566-1.299 22.631 22.631 0 0 0-8.603-4.424 18.127 18.127 0 0 1-1.97-.52 7.666 7.666 0 0 1 2.028.26 19.116 19.116 0 0 1 8.668 4.482 7.632 7.632 0 0 1 1.443 1.501ZM145.568 180.948c0 .051-.902.332-2.352.852a50.747 50.747 0 0 0-5.536 2.367 49.674 49.674 0 0 0-5.196 3.039c-1.285.858-2.057 1.443-2.093 1.385-.036-.057.159-.187.491-.469.332-.281.822-.671 1.443-1.133a37.9 37.9 0 0 1 10.826-5.442c.721-.23 1.349-.396 1.775-.49.207-.069.424-.105.642-.109Z" fill="#3B3F51"/><path d="M172.148 169.286a3.168 3.168 0 0 1-.534.361l-1.551.924c-.686.404-1.501.93-2.447 1.551-.945.621-2.035 1.306-3.197 2.122-2.367 1.58-5.095 3.608-8.119 5.817-3.024 2.208-6.293 4.77-9.721 7.433a644.172 644.172 0 0 1-9.736 7.427c-3.017 2.251-5.774 4.229-8.148 5.773a81.675 81.675 0 0 1-3.212 2.108c-.959.599-1.782 1.125-2.475 1.515l-1.588.917a3.822 3.822 0 0 1-.563.296c.169-.131.344-.252.527-.361l1.552-.975a66.402 66.402 0 0 0 2.432-1.566c.938-.628 2.021-1.328 3.183-2.165 2.345-1.602 5.052-3.608 8.083-5.86 3.031-2.252 6.278-4.792 9.714-7.455a595.164 595.164 0 0 1 9.743-7.412c3.024-2.244 5.773-4.2 8.176-5.773a77.858 77.858 0 0 1 3.234-2.079c.967-.592 1.79-1.111 2.49-1.494l1.594-.902c.185-.077.373-.144.563-.202ZM190.638 185.228s0 .058-.043.166c-.043.108-.087.281-.152.476a18.915 18.915 0 0 1-.663 1.79 28.881 28.881 0 0 1-3.501 6.099 30.532 30.532 0 0 1-3.182 3.68 35.199 35.199 0 0 1-4.244 3.609 42.16 42.16 0 0 1-11.367 5.773c-4.294 1.48-8.509 2.461-12.305 3.428-3.796.967-7.217 1.768-10.147 2.375-2.93.606-5.275 1.01-6.914 1.248-.822.116-1.443.202-1.898.246l-.49.05a.463.463 0 0 1-.174 0l.166-.043.491-.087 1.884-.317c1.631-.282 3.983-.722 6.878-1.364 2.894-.643 6.322-1.48 10.103-2.454 3.782-.974 7.997-1.978 12.269-3.45a42.466 42.466 0 0 0 11.288-5.708 36.185 36.185 0 0 0 4.229-3.609 32.236 32.236 0 0 0 3.19-3.608 30.24 30.24 0 0 0 3.572-5.998c.354-.721.57-1.349.722-1.761l.18-.454a.503.503 0 0 1 .108-.087ZM192.739 185.019a4.59 4.59 0 0 1-.361 1.443 15.017 15.017 0 0 1-1.639 3.219 14.73 14.73 0 0 1-2.367 2.728 4.428 4.428 0 0 1-1.205.88 33.514 33.514 0 0 0 3.262-3.817 33.301 33.301 0 0 0 2.31-4.453ZM113.546 223.716c0-.255.032-.51.094-.758.08-.49.224-1.19.419-2.049a54.288 54.288 0 0 1 4.792-12.89 38.9 38.9 0 0 1 1.01-1.818c.12-.23.266-.445.433-.643.051 0-.447.996-1.205 2.584a77.165 77.165 0 0 0-2.692 6.3 74.865 74.865 0 0 0-2.078 6.532c-.455 1.689-.715 2.757-.773 2.742ZM58.012 176.019a3.965 3.965 0 0 1 1.443-.498 10.47 10.47 0 0 1 3.609-.137c1.203.163 2.369.537 3.442 1.104.461.201.878.49 1.227.852a16.685 16.685 0 0 0-4.72-1.58 16.693 16.693 0 0 0-5.001.259Z" fill="#3B3F51"/><path d="M76.242 212.797c-1.747 0-3.94 1.357-5.052 2.699a17.308 17.308 0 0 0-2.46 4.619c-.513 1.27-1.019 2.699-.506 3.976a3.768 3.768 0 0 0 3.067 2.086 13.436 13.436 0 0 0 3.861-.31c13.359-2.252 27.158 1.032 40.552-.989l-39.462-12.081Z" fill="#FFCE00"/><path d="M136.958 44.995a4.327 4.327 0 0 0-3.355-4.402l-18.093-4.027c-6.691-.917-14.153 5.578-14.788 12.268-.722 7.47-1.263 16.6-.549 22.221 1.444 11.273 9.989 12.991 9.989 12.991l-.296 11.143 24.343-.722 2.749-49.472Z" fill="#C46845"/><path d="M105.788 56.484a1.441 1.441 0 0 0 1.343 1.494 1.38 1.38 0 0 0 1.37-.73c.085-.164.137-.342.152-.526a1.445 1.445 0 0 0-1.342-1.494 1.38 1.38 0 0 0-1.523 1.256ZM102.945 53.706c.173.195 1.284-.577 2.836-.527 1.552.05 2.656.859 2.836.678.181-.18-.086-.425-.57-.8a3.974 3.974 0 0 0-2.266-.78 3.86 3.86 0 0 0-2.266.657c-.476.353-.65.685-.57.772ZM120.987 56.477a1.444 1.444 0 0 0 1.35 1.501 1.386 1.386 0 0 0 1.537-1.277 1.441 1.441 0 0 0-1.342-1.494 1.379 1.379 0 0 0-1.545 1.27ZM118.418 54.536c.173.195 1.292-.578 2.844-.527 1.551.05 2.655.859 2.829.678.173-.18-.08-.425-.571-.8a3.945 3.945 0 0 0-2.258-.78 3.828 3.828 0 0 0-2.267.657c-.483.382-.656.714-.577.772ZM112.19 65.78a10.552 10.552 0 0 0-2.505-.534c-.389-.05-.765-.145-.822-.412-.023-.411.083-.82.303-1.169.397-.945.822-1.934 1.263-2.973 1.753-4.237 3.038-7.73 2.887-7.795-.152-.064-1.74 3.306-3.494 7.542l-1.219 2.995a2.364 2.364 0 0 0-.253 1.552 1.018 1.018 0 0 0 .635.599c.219.063.444.1.672.108.837.136 1.688.165 2.533.087Z" fill="#3B3F51"/><path d="M110.162 84.082a29.696 29.696 0 0 0 15.545-3.565s-4.034 7.744-15.618 6.35l.073-2.785ZM112.731 69.533a2.775 2.775 0 0 1 2.533-.96 2.546 2.546 0 0 1 1.725.996 1.625 1.625 0 0 1 .072 1.854 1.889 1.889 0 0 1-2.049.448 5.705 5.705 0 0 1-1.963-1.242 1.753 1.753 0 0 1-.433-.469.528.528 0 0 1 0-.577" fill="#9F4F36"/><path d="M117.458 51.873c.202.404 1.711 0 3.544.036s3.348.339 3.543-.065c.087-.195-.209-.556-.844-.895a6.164 6.164 0 0 0-5.406 0c-.628.368-.916.736-.837.924ZM103.161 48.04c.26.361 1.343 0 2.627.058 1.285.058 2.36.303 2.62-.05.115-.18-.043-.534-.505-.888a3.805 3.805 0 0 0-4.229 0c-.469.354-.628.707-.513.88ZM117.855 69.316c0 .21-1.313 0-2.555.722-1.241.722-1.739 1.905-1.941 1.833-.094 0-.108-.375.115-.888a3.524 3.524 0 0 1 3.558-2.05c.549.102.852.29.823.383Z" fill="#3B3F51"/><path d="M115.113 36.493c7.015-3.774 10.031-.281 16.021 1.58 0 0 6.748 1.95 7.874 8.77.945 5.694.043 8.573.808 14.289.332 2.512-1.58 5.608-2.403 8.004-1.386 4.02-3.702 5.701-7.939 5.456a8.604 8.604 0 0 0 2.678-4.59 6.053 6.053 0 0 0-1.256-5.052c-.895-1.025-2.165-1.653-3.11-2.627a6.1 6.1 0 0 1-1.155-6.654c.815-1.768 2.54-3.472 1.941-5.326-.599-1.855-2.843-2.209-4.633-2.779-4.489-1.443-8.595-6.344-8.819-11.05" fill="#3B3F51"/><path d="M115.654 36.493a26.616 26.616 0 0 1-14.571 10.04c1.811-5.132 4.756-9.188 10.031-10.516.722-.173 3.717-.18 4.54.476Z" fill="#3B3F51"/><path d="M129.734 34.364c-4.864-2.944-11.006-3.06-16.527-1.71a19.65 19.65 0 0 0-8.299 3.962 16.67 16.67 0 0 0-5.103 9.26c-.721 3.521-.317 7.447.296 10.99l.325-4.618c0-2.483.26-3.031 1.747-7.217 1.183-3.32 3.363-5.146 6.661-6.394 4.626-1.747 9.902-.722 14.354 1.407 4.453 2.129 8.293 5.348 12.305 8.235.527.382 1.35.721 1.74.194.158-.209 1.818-1.096 1.818-1.364-.072-5.34-4.727-9.966-9.317-12.745Z" fill="#3B3F51"/><path d="M173.931 215.258c-2.115-2.887-6.199-3.508-9.786-3.313a35.015 35.015 0 0 0-8.365 1.48c-1.443.433-2.887.96-4.33.685-1.277-.231-2.367-1.053-3.608-1.443-2.267-.657-4.641.274-6.972.671-5.947 1.025-11.886-1.443-17.422-3.839l-6.596 12.832c6.322 2.8 11.915 4.063 18.562 5.687 5.896 1.443 12.059.938 18.129 1.154 3.464.123 6.95.484 10.392.058 3.443-.426 6.929-1.732 9.173-4.373 2.245-2.642 2.858-6.792.823-9.599Z" fill="#FFCE00"/><path d="M69.646 140.064s-3.27 12.269-3.76 14.571c-.491 2.303-3.544 11.324-1.566 15.264l15.603 5.298s3.933-2.822 8.472-11.028c4.54-8.206 21.536-34.035 21.536-34.035l-10.104-5.774-14.376 16.274-15.805-.57Z" fill="#C46845"/><path d="m113.049 93.038 17.032 31.214 2.439 1.544v-3.125l-16.671-31.134a1.589 1.589 0 0 0-2.608-.27 1.585 1.585 0 0 0-.372 1.171c.019.21.08.414.18.6Z" fill="#FFCE00"/><path d="m114.629 110.106-14.824 14.225 6.835 7.354s4.388-1.616 6.445-4.02c2.057-2.403 4.294-5.434 4.294-5.434l3.767.339s-2.952.108-2.728 1.487c.224 1.378 6.041 1.487 6.041 1.487a1.446 1.446 0 0 0 1.14-1.487s1.826-1.14 2.057-2.396c.15-.688.1-1.404-.145-2.064l.166-3.046 2.945 3.277s1.147-.91.722-1.942c-.426-1.032-4.836-7.78-4.836-7.78h-11.879Z" fill="#C46845"/><path d="M125.714 124.064a17.41 17.41 0 0 1-.628-1.79 6.677 6.677 0 0 0-.931-1.775 4.276 4.276 0 0 0-1.919-1.443 13.492 13.492 0 0 0-4.424-.852c-.629 0-1.257-.053-1.877-.159a8.336 8.336 0 0 1 1.906-.115 11.813 11.813 0 0 1 4.553.772 4.608 4.608 0 0 1 2.057 1.573c.399.581.704 1.222.902 1.898.213.609.334 1.247.361 1.891ZM127.67 120.29c-.065 0-.166-.722-.678-1.689a4.89 4.89 0 0 0-1.227-1.443 6.83 6.83 0 0 0-2.1-1.105 22.3 22.3 0 0 0-2.346-.591l-1.956-.419a8.67 8.67 0 0 1-1.782-.491 9.354 9.354 0 0 1 1.833.231l1.97.339c.813.138 1.616.331 2.403.578a6.495 6.495 0 0 1 2.166 1.198c.529.443.956.998 1.248 1.624.193.415.331.854.411 1.306.08.281.087.462.058.462ZM127.656 116.746a7.015 7.015 0 0 0-.592-1.328 5.561 5.561 0 0 0-2.843-1.905 11.533 11.533 0 0 0-1.898-.404l-1.595-.267a5.784 5.784 0 0 1-1.444-.34 6.179 6.179 0 0 1 1.494.08l1.602.188c.669.057 1.33.187 1.971.389a5.255 5.255 0 0 1 2.951 2.122c.29.43.415.95.354 1.465Z" fill="#9F4F36"/><path d="M99.805 124.353c.077-.098.161-.19.253-.274l.779-.78 2.981-2.887 10.674-10.407.043-.043h12.045l.051.087 2.483 3.897c.418.671.837 1.342 1.255 2.028l.628 1.039c.239.354.423.74.549 1.148a1.58 1.58 0 0 1-.195 1.046c-.162.303-.38.572-.642.794l-.138.115-.122-.137-2.945-3.283.325-.116-.13 3.277v-.094c.179.433.246.905.195 1.371a2.887 2.887 0 0 1-.361 1.306 6.127 6.127 0 0 1-1.855 1.783l.08-.13c-.022.371-.141.73-.347 1.039a1.436 1.436 0 0 1-.945.599 26.206 26.206 0 0 1-2.656-.195 11.677 11.677 0 0 1-2.512-.541 2.735 2.735 0 0 1-.577-.296.975.975 0 0 1-.433-.555 1.09 1.09 0 0 1 .592-1.148 5.45 5.45 0 0 1 2.273-.548v.288l-3.774-.361.115-.057a103.543 103.543 0 0 1-2.944 3.803 22.45 22.45 0 0 1-2.425 2.685 6.111 6.111 0 0 1-1.942 1.183 2.388 2.388 0 0 1-.57.152h-.202l.195-.043c.188-.044.372-.104.549-.181a6.5 6.5 0 0 0 1.876-1.227 23.002 23.002 0 0 0 2.36-2.706 107.573 107.573 0 0 0 2.887-3.825l.036-.058h.065l3.767.325v.289c-.738.023-1.463.2-2.129.519a.784.784 0 0 0-.447.816c.072.281.461.49.822.628 1.643.472 3.343.715 5.052.721a1.13 1.13 0 0 0 .722-.462c.17-.258.27-.557.289-.866v-.086l.072-.051a5.773 5.773 0 0 0 1.732-1.667 2.34 2.34 0 0 0 .303-1.147 2.588 2.588 0 0 0-.144-1.17v-.101l.122-3.276v-.462l.303.339 2.952 3.284h-.26a1.696 1.696 0 0 0 .722-1.443 4.34 4.34 0 0 0-.498-1.025l-.621-1.032-1.255-2.028-2.476-3.897.159.086h-11.879l.115-.043-10.825 10.27-3.039 2.886-.815.722a1.511 1.511 0 0 1-.318.123ZM87.197 138.657a5.932 5.932 0 0 1-.721.852 37.697 37.697 0 0 1-2.165 2.165c-.953.88-2.079 1.927-3.421 2.98a51.109 51.109 0 0 1-4.612 3.082 40.47 40.47 0 0 0-4.475 3.204 18.04 18.04 0 0 0-3.038 3.277 12.98 12.98 0 0 0-1.443 2.641c-.267.664-.376 1.047-.404 1.039-.03-.007 0-.101.043-.288.043-.188.115-.455.224-.801.335-.97.796-1.892 1.37-2.743a17.39 17.39 0 0 1 3.032-3.385 36.926 36.926 0 0 1 4.503-3.262c1.66-1.06 3.277-1.984 4.605-3.038a82.586 82.586 0 0 0 3.442-2.887c.953-.844 1.704-1.58 2.223-2.078a6.22 6.22 0 0 1 .837-.758Z" fill="#9F4F36"/><path d="M138.005 139.927a1.17 1.17 0 0 0 .83-.39 1.382 1.382 0 0 0 .353-1.039 1.341 1.341 0 0 0-.945-1.09 1.817 1.817 0 0 0-1.79.325 2.524 2.524 0 0 0-.671.866 2.842 2.842 0 0 0-.209.541c-.051.195-.116.405 0 .527a.443.443 0 0 0 .476.123.898.898 0 0 0 .476-.332 1.344 1.344 0 0 0 .195-1.227 1.796 1.796 0 0 0-1.044-.909 1.792 1.792 0 0 0-1.381.108 3.3 3.3 0 0 0-1.227.967 1.446 1.446 0 0 0-.31.722.453.453 0 0 0 .332.505.829.829 0 0 0 .686-.238c.191-.193.302-.451.31-.722a1.674 1.674 0 0 0-.722-1.443 2.158 2.158 0 0 0-1.725-.217 2.029 2.029 0 0 0-1.385 1.104 1.055 1.055 0 0 0-.044.845.72.72 0 0 0 .686.382.99.99 0 0 0 .722-.411.997.997 0 0 0 .079-.866 1.439 1.439 0 0 0-1.515-.96 2.886 2.886 0 0 0-1.833.866 4.353 4.353 0 0 0-.722.794 1.038 1.038 0 0 0-.195.895.508.508 0 0 0 .529.254.506.506 0 0 0 .193-.074.818.818 0 0 0 .418-.794 2.2 2.2 0 0 0-1.075-1.753 2.341 2.341 0 0 0-2.995.462 1.296 1.296 0 0 0-.31.974c.064.722 1.205.83 1.573.245a1.336 1.336 0 0 0-.476-1.847 2.415 2.415 0 0 0-2.166-.123c-.356.141-.7.315-1.024.52a2.554 2.554 0 0 0-.816.721.899.899 0 0 0-.065.931.499.499 0 0 0 .309.279.5.5 0 0 0 .413-.048.791.791 0 0 0 .368-.808 1.712 1.712 0 0 0-.419-.924 2.097 2.097 0 0 0-.809-.607 2.082 2.082 0 0 0-2.64.925 1.082 1.082 0 0 0-.058.895.633.633 0 0 0 .722.332.884.884 0 0 0 .685-.491 1.186 1.186 0 0 0 0-.888 1.915 1.915 0 0 0-1.443-1.061 3.95 3.95 0 0 0-1.884.058 1.6 1.6 0 0 0-1.198 1.148 1.196 1.196 0 0 0 .664 1.356 1.013 1.013 0 0 0 1.162-.779 1.644 1.644 0 0 0-.433-1.444 2.462 2.462 0 0 0-1.313-.786 3.018 3.018 0 0 0-2.736.671c-.336.299-.57.695-.671 1.133-.047.197-.039.402.023.595.063.192.177.363.331.495a.72.72 0 0 0 .996 0 1.063 1.063 0 0 0 .332-.953 2.052 2.052 0 0 0-1.105-1.479 2.22 2.22 0 0 0-1.493-.231 2.465 2.465 0 0 0-1.025.498c-.234.21-.436.453-.599.721a.737.737 0 0 1 .101-.223c.119-.212.272-.402.454-.563a2.438 2.438 0 0 1 1.04-.549 2.37 2.37 0 0 1 1.595.21 2.208 2.208 0 0 1 1.212 1.587 1.264 1.264 0 0 1-.382 1.119.944.944 0 0 1-1.256.05 1.3 1.3 0 0 1-.44-1.299 2.42 2.42 0 0 1 .721-1.263 3.27 3.27 0 0 1 2.959-.721c.56.13 1.065.433 1.444.866a1.903 1.903 0 0 1 .498 1.71 1.443 1.443 0 0 1-.542.801 1.126 1.126 0 0 1-.981.195 1.224 1.224 0 0 1-.722-.722 1.704 1.704 0 0 1-.137-1.003 1.932 1.932 0 0 1 1.443-1.407 4.243 4.243 0 0 1 2.043-.072 2.21 2.21 0 0 1 1.703 1.256 1.449 1.449 0 0 1 0 1.147 1.215 1.215 0 0 1-.945.722.982.982 0 0 1-1.105-.643 1.389 1.389 0 0 1 .051-1.198 2.428 2.428 0 0 1 3.086-1.114c.378.155.711.401.97.718.274.318.449.709.505 1.125a1.18 1.18 0 0 1-.548 1.162.904.904 0 0 1-.722.087.955.955 0 0 1-.534-.469 1.272 1.272 0 0 1 .079-1.299c.243-.346.558-.634.924-.845a6.53 6.53 0 0 1 1.097-.548 2.799 2.799 0 0 1 2.483.151 1.722 1.722 0 0 1 .819 1.753 1.693 1.693 0 0 1-.242.636 1.293 1.293 0 0 1-1.256.505 1.187 1.187 0 0 1-.649-.281 1.117 1.117 0 0 1-.347-.635 1.665 1.665 0 0 1 .397-1.263 2.597 2.597 0 0 1 1.039-.722 2.665 2.665 0 0 1 2.44.202 2.57 2.57 0 0 1 1.248 2.079 1.195 1.195 0 0 1-.62 1.118c-.21.104-.449.135-.679.087a.78.78 0 0 1-.548-.455 1.332 1.332 0 0 1 .223-1.234c.226-.318.487-.608.78-.866a3.271 3.271 0 0 1 2.071-.945c.397-.022.791.073 1.133.274.341.214.597.541.722.924a1.35 1.35 0 0 1-.13 1.162 1.324 1.324 0 0 1-1.018.563 1.048 1.048 0 0 1-.995-.578 1.343 1.343 0 0 1 .036-1.118 2.36 2.36 0 0 1 1.609-1.285 2.432 2.432 0 0 1 1.977.274 1.962 1.962 0 0 1 .845 1.732 1.224 1.224 0 0 1-.853 1.154c-.162.052-.334.07-.504.052a.723.723 0 0 1-.556-.809c.041-.31.171-.601.376-.837a3.522 3.522 0 0 1 1.335-1.046 2.028 2.028 0 0 1 2.278.314c.202.184.364.405.479.653a1.544 1.544 0 0 1-.239 1.443 1.11 1.11 0 0 1-.613.404.647.647 0 0 1-.722-.216.884.884 0 0 1 0-.722c.055-.199.13-.393.224-.577.174-.353.42-.665.722-.917a1.98 1.98 0 0 1 1.956-.325 1.38 1.38 0 0 1 .591 2.317.941.941 0 0 1-.815.368Z" fill="#3B3F51"/><path d="m109.245 137.95-9.44 35.666 30.009.945 9.439-35.226-30.008-1.385Z" fill="#FFCE00"/><path d="m109.245 137.95-1.205.115-9.52 32.946 1.451 1.984 9.274-35.045Z" fill="#FAFAFA"/><path d="M129.114 147.043h9.743a2.292 2.292 0 0 1 2.165 1.407c.392.883.585 1.842.563 2.808.409.577.638 1.263.656 1.97a49.56 49.56 0 0 1 0 5.341c-.094.281-1.126.562-1.126.562.361.833.394 1.771.094 2.627a2.755 2.755 0 0 1-1.407 1.401s-1.314 3.002-2.62 3.377-2.533 0-3.19 0c-.656 0-11.244-5.434-11.244-5.434v-1.198s-3.753.375-3.846-1.689c-.094-2.064 2.439-1.941 2.439-1.941h5.716s-6.279.252-6.842-.679c-.563-.931-1.313-3.19.614-3.565 1.926-.375 10.587-.375 10.587-.375l4.734.786h.722l-.585-2.085s-4.972 0-5.708-.109c-.736-.108-2.165-.281-2.165-1.587 0-1.307.7-1.617.7-1.617Z" fill="#C46845"/><path d="M142.299 155.299s7.325 1.92 12.37 1.538l5.052-.39-4.929-19.811 19.254-2.057 3.039 25.382v4.944c-5.774 1.443-11.547 4.446-17.386 8.603l-23.094-6.856 5.694-11.353Z" fill="#C46845"/><path d="M134.591 156.829a7.805 7.805 0 0 1-1.818.123c-1.126 0-2.685 0-4.403-.115a60.996 60.996 0 0 1-4.373-.448 8.03 8.03 0 0 1-1.79-.361c.608-.024 1.216.008 1.819.094 1.118.094 2.663.224 4.373.339 1.71.116 3.255.181 4.374.231.609-.008 1.217.038 1.818.137ZM133.704 162.069a6.588 6.588 0 0 1-1.624-.051 57.69 57.69 0 0 1-3.876-.491 50.146 50.146 0 0 1-3.839-.757 6.846 6.846 0 0 1-1.552-.469 7.391 7.391 0 0 1 1.609.202l3.84.649 3.854.606a7.603 7.603 0 0 1 1.588.311ZM141.866 154.722s.144.043.346.209a2.338 2.338 0 0 1 .592 2.663 2.496 2.496 0 0 1-1.681 1.444l.115-.267a3.095 3.095 0 0 1 .261 2.514 3.101 3.101 0 0 1-1.704 1.866l.108-.122a5.963 5.963 0 0 1-2.107 3.197 5.03 5.03 0 0 1-.946.584 1.004 1.004 0 0 1-.375.13c0-.05.484-.274 1.184-.887a6.13 6.13 0 0 0 1.898-3.111v-.094h.086a2.634 2.634 0 0 0 1.444-1.66 2.613 2.613 0 0 0-.224-2.165l-.137-.216.245-.058a2.243 2.243 0 0 0 1.487-1.198c.224-.479.26-1.025.101-1.53a3.266 3.266 0 0 0-.693-1.299Z" fill="#9F4F36"/><path d="M218.54 154.012a10.072 10.072 0 0 0 3.527 1.395 9.993 9.993 0 0 0 3.884-.033 9.89 9.89 0 0 0 3.564-1.512 9.822 9.822 0 0 0 4.061-10.221 9.972 9.972 0 0 0-1.547-3.564 10.079 10.079 0 0 0-2.728-2.671l-3.008 4.642a4.415 4.415 0 0 1 1.87 2.733 4.334 4.334 0 0 1-3.351 5.172 4.418 4.418 0 0 1-3.259-.59l-3.013 4.649ZM47.66 37.4a7.866 7.866 0 0 0-1.316-2.657 7.809 7.809 0 0 0-2.273-2.015 7.73 7.73 0 0 0-2.861-.989 7.676 7.676 0 0 0-5.722 1.526 7.734 7.734 0 0 0-1.99 2.281 7.812 7.812 0 0 0-.967 2.88 7.868 7.868 0 0 0 .185 2.979l4.178-1.12a3.453 3.453 0 0 1 .345-2.566 3.391 3.391 0 0 1 2.066-1.596 3.393 3.393 0 0 1 2.588.349 3.454 3.454 0 0 1 1.583 2.05L47.66 37.4Z" fill="#2BC866"/><path d="m203.594 58.216-1.146-1.972 3.807-1.726-2.518-3 1.72-1.401 2.158 3.332 1.743-3.833 2.194 1.243-2.418 3.45 3.98.147-.344 2.181-3.911-.542.516 4.142-2.319.008.135-4.292-3.597 2.263ZM17.119 193.698l-2.225.5-.502-4.15-3.618 1.5-.82-2.062 3.827-1.057-3.131-2.814 1.844-1.719 2.564 3.343 1.336-3.752 1.977.985-1.692 3.566 4.105.753-.69 2.214-4.052-1.418 1.077 4.111Z" fill="#FFCE00"/><path d="M100.651 99.939a73.27 73.27 0 0 0-1.068-3.228 52.98 52.98 0 0 1 1.068 3.228c1.564 5.093 3.441 12.812 3.106 18.163-.15-3.319-.982-11.007-3.106-18.163ZM143.395 101.12c.385-1.725.75-3.23 1.058-4.41a92.793 92.793 0 0 0-1.058 4.41c-1.549 6.956-3.409 17.499-3.077 24.808.149-4.533.973-15.034 3.077-24.808Z" fill="#3B3F51"/><path d="m102.192 171.319 8.348-30.782-6.261 29.217 23.478 2.609-25.565-1.044ZM41.67 187.493c-.522-5.043 1.357-15.13 13.044-15.13-4.348.174-13.044 3.443-13.044 15.13ZM106.366 203.146c2.783 2.956 7.513 10.121 4.174 15.13 1.043-1.913 1.669-7.617-4.174-15.13ZM180.453 167.146c4.864.162 13.446 3.196 11.543 13.752a12.15 12.15 0 0 1-.587 2.421c.255-.848.448-1.654.587-2.421.658-4.736-1.026-11.649-11.543-13.752ZM133.496 206.276c8.599 1.391 29.088 1.043 42.261-11.478-6.435 4.869-23.895 13.982-42.261 11.478ZM95.931 173.928c5.565 3.304 19.722 9.078 31.826 5.739-4.174 1.044-16.382 1.357-31.826-5.739ZM97.847 98.766c-.706-1.744-1.38-3.159-1.916-4.142.523 0 1.196 1.637 1.916 4.142 2.04 5.043 4.345 12.838 4.345 20.901-.956-5.733-2.765-15.406-4.345-20.9Z" fill="#FAFAFA"/></g><defs><radialGradient id="b" cx="0" cy="0" r="1" gradientUnits="userSpaceOnUse" gradientTransform="rotate(76.408 -16.331 136.038) scale(127.405 127.453)"><stop offset=".212" stop-color="#FFCE00"/><stop offset="1" stop-color="#FFCE00" stop-opacity="0"/></radialGradient><clipPath id="a"><path fill="#fff" d="M0 0h240v240H0z"/></clipPath></defs></svg>
