<?xml version="1.0" encoding="UTF-8"?><svg xmlns="http://www.w3.org/2000/svg" viewBox="0 0 847.04 277.49"><defs><style>.g{fill:#a61d33;}.h{fill:#444345;}</style></defs><g id="a"/><g id="b"><g id="c"><g id="d"><g id="e"><g id="f"><path class="g" d="M120.57,0c2.47,.58,4.79,1.6,6.96,3.05l103.01,56.15c.58,.29,1.16,.58,1.74,1.16l-4.93,2.9c-23.79,13.93-47.59,27.71-71.38,41.64-2.03,.87-3.19,2.9-2.9,5.08,.15,1.74,.15,3.63,.15,5.51-.15,2.18,1.16,4.21,3.05,5.08,1.6,.87,3.19,1.74,4.64,2.76,1.74,1.31,4.06,1.31,5.8,0,12.48-7.4,25.1-14.65,37.72-22.05l32.36-18.86,1.31-.73c.58,.29,.29,.73,.29,1.16v119.7c0,2.03-.44,3.92-1.45,5.66-.87,1.45-2.18,2.61-3.63,3.48-11.61,6.82-23.36,13.78-34.97,20.6-9.29,5.51-18.57,11.03-27.86,16.4-4.06,2.32-8.13,4.64-12.04,7.11-11.17,6.82-22.63,13.35-33.95,20.17-3.05,2.03-7.11,2.03-10.16,0-36.27-21.47-72.55-42.8-108.96-64.13-2.32-1.31-4.06-3.48-4.79-6.09-.15-.29,0-.87-.58-.87V81.54c1.02,.44,1.89,1.02,2.76,1.74,2.47,1.02,4.79,2.32,7.11,3.77,32.21,18.72,64.42,37.43,96.63,56.15,1.45,.73,2.32,2.18,2.18,3.77v89.96c-.15,1.89,.87,3.77,2.61,4.5,1.89,1.02,3.63,2.03,5.51,3.05,1.6,.87,3.48,.87,5.08,0s3.19-1.89,4.93-2.76c2.18-.87,3.48-3.05,3.19-5.37v-101.85c.15-1.6-.73-3.05-2.18-3.77l-2.9-1.74C85.89,106.21,46.72,83.57,7.69,60.79c-.44,.15-.87-.15-1.16-.58l1.31-.73L110.85,3.34c2.18-1.45,4.64-2.61,7.25-3.34h2.47Z"/><path class="h" d="M846.75,204.72c-.44,.58-.29,1.45-.29,2.03-1.02,9.72-3.77,18.86-10.01,26.55-5.08,6.09-11.9,10.59-19.73,12.62-6.38,1.74-13.06,2.61-19.59,2.47-3.92,0-7.83-.15-11.75-.44-6.38-.44-12.62-1.31-18.86-2.61-.58-.15-.87-.29-.87-1.02v-22.34q0-.15,.15-.29c3.05,.58,6.24,1.31,9.29,1.89,7.69,1.45,15.38,1.89,23.21,1.6,3.63,0,7.25-.87,10.59-2.32,5.51-2.47,9.29-7.4,10.3-13.35,.29-1.6,.44-3.05,.44-4.64v-72.84q0-1.45-1.31-2.03c-3.77-1.45-7.69-2.18-11.61-2.18-3.92-.29-7.98,0-11.75,.87-8.27,1.74-15.09,7.83-17.7,15.96-2.76,7.83-2.47,16.4,.87,23.94,3.48,8.13,10.01,12.91,18.43,14.94,3.48,.87,6.96,1.16,10.59,.87,1.74-.15,1.6-.29,1.6,1.6v20.31q0,1.74-1.74,1.89c-3.63,.29-7.4,.29-11.17,0-6.24-.44-12.33-1.74-17.99-4.21-14.94-6.24-24.09-17.41-27.86-33.08-1.89-7.98-2.47-16.11-1.6-24.23,.87-10.59,5.37-20.46,12.77-28,6.09-6.09,13.78-10.45,22.05-12.77,7.25-2.03,14.8-2.9,22.49-2.61,13.64,.29,26.99,2.9,39.76,7.54,.58,.15,1.02,.44,1.6,.58l-.29,93.29Z"/><path class="h" d="M548.74,106.93c.15-.58,.15-1.16,.15-1.89V61.37c0-.58,.29-.87,.87-.87h25.39c.58,0,.87,.15,.87,.73V202.55q0,1.74-1.74,2.18c-5.8,1.31-11.61,2.32-17.41,3.05-8.56,1.02-17.12,1.45-25.83,1.16-9.87-.15-19.73-2.47-28.58-6.96-13.2-6.96-21.18-17.85-24.09-32.36-2.32-10.59-1.74-21.62,1.6-31.92,5.66-16.83,17.27-27.28,34.24-31.92,9.43-2.47,19.3-2.61,28.87-.73,1.02,.15,1.89,.44,2.9,.73,.87,.44,1.74,.73,2.76,1.16Zm.15,50.78v-25.1c0-1.74,.15-1.45-1.45-2.03-7.25-2.76-15.23-3.34-22.92-1.74-9.14,1.6-16.4,8.56-18.57,17.7-1.89,6.96-1.74,14.22,.58,21.18,2.03,6.24,6.38,11.46,12.33,14.51,3.92,2.03,8.13,3.19,12.33,3.48,3.92,.29,7.69,.29,11.61,0,1.74-.15,3.48-.44,5.08-.58,.73-.15,1.16-.44,1.02-1.31v-26.12Z"/><path class="h" d="M437.74,145.82c-.58-4.64-2.47-9-5.37-12.48-2.76-3.05-6.53-5.08-10.59-5.66-3.19-.44-6.38-.58-9.58-.44-11.17,.29-22.34,2.61-32.65,7.11-.58,.29-1.31,.58-2.03,.73-.15-.44-.29-.87-.15-1.31v-20.75q0-1.45,1.31-2.03c7.69-3.19,15.96-5.22,24.23-6.09,5.66-.58,11.17-.73,16.83-.58,5.95,.15,11.75,1.16,17.41,3.19,10.59,3.63,19.15,11.75,23.07,22.34,1.89,4.93,3.19,10.16,3.77,15.38,.58,4.5,.73,9.14,.73,13.78v43.82q0,1.74-1.6,2.18c-6.09,1.74-12.33,3.05-18.57,4.06-3.92,.58-7.98,1.02-11.9,1.31-7.11,.58-14.22,.58-21.18,.29-8.71-.15-17.12-2.61-24.52-6.96-6.82-4.21-11.9-9.87-13.93-17.7-2.47-10.01-1.16-19.44,5.37-27.86,4.06-4.93,9.58-8.42,15.67-10.01,4.93-1.45,10.01-2.18,15.09-2.18h26.55l2.03-.15Zm-14.51,21.91h-13.06c-2.61,0-5.37,.58-7.69,1.74-2.18,1.02-3.63,3.05-4.06,5.37-.58,3.19,.58,6.53,3.05,8.56,1.45,1.16,3.05,2.18,4.79,2.76,3.19,1.16,6.38,1.89,9.72,2.18,6.96,.58,13.93,.44,20.75-.58,.87-.15,1.02-.44,1.02-1.31v-17.7q0-1.16-1.16-1.16l-13.35,.15Z"/><path class="h" d="M686.72,209.08c-9.14,.29-18.14-1.74-26.12-5.8-13.93-7.25-22.34-18.72-25.68-33.95-2.47-10.59-1.74-21.76,2.03-32.07,5.95-16.25,17.56-26.7,34.24-31.05,12.04-3.34,24.81-2.61,36.42,2.18,15.81,6.38,25.68,18.14,29.74,34.68,2.9,11.46,2.18,23.65-2.32,34.68-6.24,15.38-17.56,24.96-33.37,29.45-5.08,1.31-10.01,2.03-14.94,1.89Zm24.38-50.78c.15-4.35-.44-8.56-1.6-12.62-4.06-13.35-15.38-19.44-28-17.56-7.83,1.02-14.65,6.24-17.7,13.64-3.63,7.98-4.21,17.12-1.74,25.54,1.31,5.08,4.06,9.72,8.13,13.06,4.64,3.77,10.45,5.66,16.4,5.37,9,0,17.12-5.08,20.89-13.2,2.47-4.5,3.63-9.29,3.63-14.22Z"/><path class="h" d="M295.7,221.41c3.05,1.02,6.24,1.6,9.43,2.03,4.79,.73,9.72,.87,14.51,.15,7.11-1.16,11.46-5.66,12.48-12.91,.15-1.31,.29-2.76,.29-4.06V109.25c0-2.18-.29-1.89,1.89-1.89h24.67c.58,0,.87,.15,.87,.87v99.97c.15,5.37-.58,10.74-1.89,15.96-3.19,11.46-10.59,18.72-21.91,22.05-4.5,1.31-9,2.03-13.64,2.18-8.27,.44-16.54,0-24.67-1.31-2.47-.29-2.03,.15-2.03-2.18v-23.5Z"/><path class="h" d="M621.43,134.06v72.11c0,1.89,.29,1.6-1.6,1.6h-24.52c-.73,.15-.87-.29-.87-.87V62.24c0-1.89-.15-1.74,1.6-1.74h24.38c.73,0,1.16,.15,1.02,1.02v72.55Z"/><path class="h" d="M346.19,94.31c-7.54,0-13.49-6.09-13.49-13.64s6.09-13.49,13.64-13.49,13.49,6.09,13.49,13.49-5.95,13.49-13.35,13.64h-.29Z"/></g></g></g></g></g></svg>