<?xml version="1.0" encoding="UTF-8"?><svg xmlns="http://www.w3.org/2000/svg" viewBox="0 0 900.85 277.11"><defs><style>.f{fill:#2e2c74;}.g{fill:#bf2c50;}</style></defs><g id="a"/><g id="b"><g id="c"><g id="d"><g id="e"><path class="f" d="M833.59,127.97h-26.15c-7.04,0-9.91-2.11-12.11-8.66l-17.14-49.3c-5.12,19.79-18.29,70.8-19.51,75.8h-26.95c1.95-7.47,25.56-98.76,25.56-98.76h29.65c8.03,0,11.74,2.63,14.09,10.4,4.7,14.48,15.16,47.14,15.16,47.14,5.94-17.11,19.72-57.54,19.72-57.54h28.85c8.08,0,11.74,3.03,13.69,10.78l22.4,88.08h-26.48l-19.51-75.8-21.27,57.87Z"/><polygon class="f" points="515.9 145.88 515.9 70.06 467.78 66.91 467.78 46.91 591.35 46.96 591.35 66.91 543.32 70.06 543.32 145.88 515.9 145.88"/><path class="f" d="M235.07,47.17h27.89V123.27h66.83c-3.76,7.54-11.74,22.61-11.74,22.61h-82.98V47.17Z"/><path class="f" d="M169.51,95.74c1.88,.82,1.92,2.58,1.95,4.18v22.72c.14,4.39-2.79,8.29-7.04,9.39-40.41,14.66-80.87,29.38-121.39,44.13-2.51,.94-2.89,.31-2.84-2.09,0-7.89,.23-15.8,0-23.69,0-3.17,1.03-4.27,3.83-5.26,28.7-10.3,57.39-20.68,86.06-31.15l3.38-1.2c1.59-1.51,3.58-2.53,5.73-2.93,7.68-2.84,15.52-5.26,23.17-8.17,3.09-.94,5.67-3.08,7.16-5.94Z"/><path class="g" d="M170.19,46.72c.27,.91-.13,1.89-.96,2.35-3,2-6.29,3.54-9.74,4.58-3.68,1.92-7.55,3.44-11.55,4.53-4.7,1.76-9.39,3.26-13.94,4.86L54.52,34.61c-3.03-.96-5.87-2.46-8.38-4.41-3.43-2.74-5.38-6.93-5.28-11.31V3.71c0-3.9,.73-4.39,4.7-3.03,13.32,4.7,26.62,9.39,39.91,14.09,26.29,9.39,52.58,18.78,78.88,28.17,2.04,.99,4.72,1.17,5.85,3.78Z"/><path class="f" d="M40.23,211.07v-12.49c-.21-1.43,.74-2.78,2.16-3.05,20.09-7.09,40.18-14.22,60.26-21.39,3.17-1.13,4.27-.54,4.53,2.89,.55,6.75,.47,13.53-.26,20.26-.52,4.34-3.62,6.46-7.49,7.82-12.89,4.53-25.82,9.16-38.59,13.76-5.99,2.14-11.97,4.23-17.91,6.46-1.97,.73-2.86,.7-2.75-1.83,.19-4.08,.05-8.24,.05-12.42Z"/><path class="f" d="M40.79,260.67v-12.16c-.3-1.43,.58-2.85,2-3.22,7.39-2.68,14.72-5.52,22.11-8.22,3.03-1.13,4.39-.26,4.53,3,.23,5.87,1.01,11.74,.7,17.63,.18,4.65-2.77,8.84-7.21,10.24-6.6,2.35-13.17,4.7-19.7,7.25-1.97,.77-2.49,.28-2.35-1.71-.05-4.27-.09-8.54-.09-12.82Z"/><path class="g" d="M26.05,73.46c-5.12-1.9-10.31-3.66-15.35-5.75C3.91,65.36-.46,58.75,.04,51.58v-14.09c0-2.51,.99-3.47,3.45-2.58l102.02,37.23,63.99,23.59s-.33,2.93-1.67,3.9c-1.97,1.37-4.12,2.46-6.39,3.24l-28.01,9.91L26.05,73.46Z"/><path class="f" d="M165.42,82.05c3.43-1.05,5.86-4.12,6.1-7.7,.75-7.8,.88-15.65,.4-23.48,0-1.39,.42-3.43-1.74-4.06-.85,.59-1.22,1.57-2.02,2.21-2.58,2.16-5.68,3.6-8.99,4.18L5.3,109.59c-1.57,1.08-3.72,.76-4.91-.73-.33,2.85,1.54,5.48,4.34,6.1,9.88,3.54,19.77,7.04,29.6,10.8,3.37,1.34,7.12,1.34,10.49,0l120.59-43.71Z"/><path class="f" d="M424.56,52.45c-1.95-3.85-2.14-5.52-6.34-5.49h-29.67c-15.61,31.22-34.04,67.75-49.67,98.92h29.72l9.11-17.96h55.35c2.21,4.7,6.57,13.36,8.87,17.96h29.95c-15.56-30.75-31.69-62.61-47.33-93.43Zm-37.07,54.96l18.52-39.44,17.93,39.44h-36.46Z"/><path class="f" d="M672.04,52.45c-1.95-3.85-2.14-5.52-6.34-5.49h-29.67c-15.63,31.22-34.02,67.75-49.7,98.92h29.79l9.11-17.96h55.35c2.21,4.7,6.57,13.36,8.87,17.96h29.95l-47.37-93.43Zm-37.09,54.96l18.55-39.44,17.93,39.44h-36.48Z"/><path class="f" d="M523.53,276.92s-1.71-3-2.46-4.2c-4.7-7.42-9.18-14.86-13.85-22.23-1.2-1.92-1.9-2.93,.89-4.48,11.3-6.09,17.13-19,14.23-31.5-2.51-11.5-14.25-20.09-27.65-21.46h-46.62v83.83h10.33v-26.83c0-2.68,.59-3.19,3.26-2.35,9.65,3.42,19.98,4.47,30.12,3.08,2.18-.33,3.1,.66,4.08,2.35,4.48,7.04,15.14,23.8,15.14,23.8h12.54Zm-62.68-40.35c-1.57-.42-2.58-1.96-2.35-3.57v-26.62c0-2.49,1.06-2.86,3.15-2.82h16.29c6.1,0,12.65-.52,19.44,.73,8.47,1.57,14.09,6.6,15,13.64,1.5,8.13-3.19,16.12-11.01,18.78-13.47,5.38-27.14,4.53-40.52-.14Z"/><path class="f" d="M423.69,276.92c-12.3-24.7-29.91-59.09-42-83.88h-10.24c-.99,1.78-29.53,59.42-41.67,83.88h11.13c2.21-5.21,8.54-17.54,10.94-22.68h49.3c2.04,4.48,9.39,18.05,11.13,22.68h11.41Zm-67.09-32.11c6.17-12.42,18.78-38.43,19.91-40.59,.99,2.02,13.87,28.4,19.93,40.59h-39.84Z"/><path class="g" d="M5.3,109.59c-1.57,1.08-3.72,.76-4.91-.73,0-7.04,0-14.09-.21-21.29,0-2.93,2.09-3.64,5.63-2.35,10.14,3.73,31.97,11.74,32.65,12.21L5.3,109.59Z"/><path class="f" d="M697.25,277.11c-26.2-.28-43.62-17.37-43.48-42.7,.12-24.86,18.12-41.57,44.6-41.48s44.32,17.18,44.3,42.02c.02,25.09-18.55,42.33-45.42,42.16Zm-33.52-42.96c-.21,20.38,13.55,33.85,34.63,33.9,20.26,0,34.27-13.43,34.39-33.05,.12-19.63-13.38-33.01-34.13-33.01s-34.65,12.42-34.88,32.16Z"/><path class="f" d="M628.35,236.96v17.7q0,17.3-16.74,20.75c-11.24,2.55-22.95,2.1-33.97-1.29-17.14-5.47-27.68-18.94-28.52-36.22-1.39-17.71,9.03-34.23,25.61-40.61,15.21-6.24,30.63-5.19,46.01-.75,2.65,.77,6.67,1.1,5.38,5.7-1.29,4.6-4.91,3.52-8.31,2.61-10.29-3.11-21.19-3.58-31.71-1.39-16.67,3.85-27.16,16.6-26.95,32.44,.21,15.85,10.75,27.82,28.17,30.94,4.12,.77,8.32,1.1,12.51,.99,18.33-.8,18.94-1.55,19.11-19.86v-10.89l9.41-.12Z"/><path class="f" d="M282.54,276.92c-29.6,0-48.26-17.09-47.42-43.69,.68-22.23,17.32-38.15,42-40.19,9.17-.65,18.38,.48,27.11,3.33,2.93,.89,6.2,1.88,4.91,6.15s-4.2,3.76-7.37,2.68c-8.33-2.93-17.24-3.83-25.99-2.63-18.62,2.51-30.52,15.28-30.52,32.68s10.87,28.83,29.74,31.9c9.1,1.34,18.38,.54,27.11-2.35,3.45-1.08,7.04-2.35,8.31,2.35,1.15,4.18-2.49,5.16-5.28,6.08-7.27,2.5-14.92,3.75-22.61,3.69Z"/></g></g></g></g></svg>