<svg width="200" height="80" viewBox="0 0 200 80" fill="none" xmlns="http://www.w3.org/2000/svg">
<path d="M82.0893 17.8954H74.8042V56.3755H97.9655V49.3146H82.0893V17.8954Z" fill="#00BAFF"/>
<path d="M113.372 27.8966C105.01 27.8966 98.6157 34.1269 98.6157 42.3301C98.6157 50.5333 104.983 56.7963 113.372 56.7909C121.761 56.7854 128.128 50.5879 128.128 42.3574C128.128 34.1269 121.854 27.9294 113.404 27.8966M113.333 50.3037C108.857 50.3037 105.682 46.9208 105.731 42.2645C105.781 37.6082 108.928 34.422 113.41 34.4275C117.891 34.4329 121.061 37.7066 121.023 42.3957C120.985 47.0848 117.831 50.3365 113.328 50.3037" fill="#00BAFF"/>
<path d="M151.852 29.8587C149.528 28.558 146.908 27.8802 144.245 27.8912C135.883 27.8584 129.489 34.1215 129.489 42.3192C129.489 50.517 135.861 56.791 144.245 56.7855C146.925 56.8031 149.562 56.1192 151.896 54.8016V57.9222C151.896 62.6059 148.704 65.8576 144.201 65.8576C138.419 65.8576 135.872 60.2504 135.872 60.2504L130.576 63.4694C130.576 63.4694 133.62 72.3612 144.239 72.3612C152.656 72.3612 158.995 66.1582 158.995 57.9222V27.8639H151.89V29.8587M151.89 42.4613C151.83 47.0958 148.677 50.3202 144.201 50.2874C139.725 50.2546 136.55 46.899 136.604 42.2482C136.659 37.5973 139.796 34.4057 144.283 34.4057C148.77 34.4057 151.869 37.6301 151.89 42.2755V42.4559" fill="#00BAFF"/>
<path d="M182.725 29.8587C180.401 28.5575 177.78 27.8797 175.117 27.8912C166.756 27.8584 160.361 34.1215 160.361 42.3192C160.361 50.517 166.728 56.791 175.117 56.7855C177.797 56.8024 180.435 56.1185 182.768 54.8016V57.9222C182.768 62.6059 179.571 65.8576 175.068 65.8576C169.286 65.8576 166.745 60.2504 166.745 60.2504L161.443 63.4694C161.443 63.4694 164.488 72.3557 175.106 72.3557C183.523 72.3557 189.862 66.1582 189.862 57.9222V27.8639H182.758V29.8587M182.758 42.4613C182.697 47.0958 179.544 50.3202 175.068 50.2874C170.592 50.2546 167.417 46.899 167.471 42.2482C167.526 37.5973 170.663 34.4002 175.123 34.4057C179.582 34.4111 182.708 37.6301 182.736 42.2755V42.4613" fill="#00BAFF"/>
<path d="M199.995 27.8748H192.709V56.3755H199.995V27.8748Z" fill="#00BAFF"/>
<path d="M196.355 25.1258C197.076 25.1258 197.78 24.9121 198.38 24.5115C198.979 24.111 199.447 23.5417 199.723 22.8756C199.998 22.2095 200.071 21.4765 199.93 20.7694C199.789 20.0623 199.442 19.4128 198.932 18.903C198.423 18.3932 197.773 18.046 197.066 17.9054C196.359 17.7647 195.626 17.8369 194.96 18.1128C194.294 18.3887 193.724 18.8559 193.324 19.4554C192.923 20.0549 192.709 20.7596 192.709 21.4806C192.709 22.4474 193.094 23.3746 193.777 24.0582C194.461 24.7418 195.388 25.1258 196.355 25.1258V25.1258Z" fill="#00BAFF"/>
<path d="M60.0101 23.3333C58.6266 22.6304 57.2053 22.0046 55.7527 21.4587L55.3483 21.1636C55.3483 21.1636 45.7023 14.2666 41.4504 12.474C37.1985 10.6814 29.8042 6.79024 22.3224 7.00884C18.6486 7.09174 14.9985 7.62026 11.4522 8.5828C9.93832 8.94897 8.9218 9.37525 10.5832 10.1568C11.1297 10.4191 13.5125 11.8291 16.3872 13.4741C20.5954 15.8733 25.8802 18.7699 28.181 19.2945C31.6022 20.1135 35.1131 20.4973 38.6304 20.4367C43.9152 20.3274 46.4838 22.5791 47.003 23.4043C46.0575 22.0599 42.4615 20.9832 37.6576 21.2784C33.0341 21.5625 29.3178 21.2784 27.159 20.6116C22.846 19.2754 18.6343 17.6316 14.5564 15.693C13.4925 16.0101 12.4471 16.386 11.4248 16.8188C10.0968 17.3653 8.84529 18.3982 10.7144 18.9283C12.0533 19.3054 24.5521 23.7759 28.2029 23.9891C31.4247 24.2175 34.6626 24.0338 37.8379 23.4426C42.5653 22.5517 45.0301 24.4919 45.6039 25.2461C44.0004 27.4985 43.2278 30.2373 43.4179 32.9956C26.137 29.9461 20.6227 28.3721 16.7206 27.6999C9.8946 26.5249 1.23233 32.307 0.166623 39.4609C-0.434544 43.5325 0.603836 47.3307 3.07409 50.8448C5.80666 54.736 9.4082 58.0916 9.93286 58.8021C10.2662 59.4142 10.1569 61.021 10.1788 62.0812C10.1788 63.2999 11.7309 64.3875 12.6217 64.4695C13.1682 64.5187 23.3826 67.7158 23.3826 67.7158L38.5375 72.3775C38.5375 72.3775 38.7725 71.3337 38.8162 70.891C38.931 69.7707 38.0784 66.9998 34.526 65.9724C29.3014 64.3984 28.2684 64.1033 27.159 63.7863C26.5579 63.606 26.9787 63.595 27.9077 62.8627C29.4138 61.5756 30.6491 60.0022 31.5421 58.2337C34.6353 51.6755 30.7442 45.795 30.7442 45.795C32.4394 47.8098 33.5892 50.226 34.0834 52.8123C35.2256 58.3868 31.4492 62.8081 31.4492 62.8081L33.7008 63.4639C33.7008 63.4639 48.2655 48.7954 49.6864 47.2105C50.8887 45.8715 52.9655 45.0245 54.0585 44.6856C57.9388 43.5598 62.8028 41.4065 64.0324 40.5977C65.2621 39.7888 66.765 37.0563 67.164 36.3731C67.6629 35.5837 67.9941 34.7001 68.1367 33.7772C68.1695 33.4219 66.0928 30.6511 66.0928 30.6511C66.0928 30.6511 62.7754 25.0329 60.0374 23.3715" fill="#00BAFF"/>
<path d="M17.6222 68.5301C17.2853 68.7236 17.0387 69.0426 16.9363 69.4174C16.8339 69.7923 16.884 70.1924 17.0757 70.5303C17.2255 70.7942 17.4525 71.0059 17.7261 71.137C18.8191 71.7217 22.5791 69.6723 22.5791 69.6723L18.83 68.4918C18.4413 68.3482 18.0119 68.3619 17.6332 68.5301" fill="#00BAFF"/>
</svg>
