<svg width="256" height="120" viewBox="0 0 256 120" fill="none" xmlns="http://www.w3.org/2000/svg">
<mask id="mask0_737_12871" style="mask-type:alpha" maskUnits="userSpaceOnUse" x="0" y="0" width="256" height="120">
<rect width="256" height="120" fill="#C4C4C4"/>
</mask>
<g mask="url(#mask0_737_12871)">
<path d="M35.6394 19.0596C33.6163 19.0577 31.6161 19.4876 29.7724 20.3204C27.9286 21.1533 26.2839 22.37 24.9479 23.8893C23.0317 21.7194 20.5005 20.1841 17.6907 19.4875C14.8809 18.791 11.9257 18.9661 9.21779 19.9896C6.50993 21.0131 4.17772 22.8366 2.53119 25.2176C0.884663 27.5985 0.00181197 30.4243 0 33.3191V55.3965H7.12975V33.3191C7.12975 31.4282 7.88091 29.6147 9.218 28.2776C10.5551 26.9405 12.3686 26.1894 14.2595 26.1894C16.1504 26.1894 17.9639 26.9405 19.301 28.2776C20.6381 29.6147 21.3892 31.4282 21.3892 33.3191V55.3965H28.519V33.3191C28.519 31.4282 29.2701 29.6147 30.6072 28.2776C31.9443 26.9405 33.7578 26.1894 35.6487 26.1894C37.5397 26.1894 39.3531 26.9405 40.6902 28.2776C42.0273 29.6147 42.7785 31.4282 42.7785 33.3191V55.3965H49.9082V33.3191C49.9082 29.5373 48.4059 25.9103 45.7317 23.2361C43.0575 20.562 39.4306 19.0596 35.6487 19.0596" fill="#00519D"/>
<path d="M109.817 55.3873V48.2575C107.926 48.2575 106.112 47.5064 104.775 46.1693C103.438 44.8322 102.687 43.0187 102.687 41.1278V0.88501H95.5571V41.1309C95.5571 44.9127 97.0595 48.5397 99.7336 51.2139C102.408 53.888 106.035 55.3904 109.817 55.3904" fill="#00519D"/>
<path d="M128.825 19.0597C126.321 19.0561 123.861 19.716 121.696 20.9723V0.971832H114.566V55.3873H121.696V33.3192C121.696 31.4282 122.447 29.6148 123.784 28.2777C125.121 26.9406 126.934 26.1894 128.825 26.1894C130.716 26.1894 132.53 26.9406 133.867 28.2777C135.204 29.6148 135.955 31.4282 135.955 33.3192V55.3966H143.085V33.3192C143.085 29.5373 141.582 25.9104 138.908 23.2362C136.234 20.562 132.607 19.0597 128.825 19.0597" fill="#00519D"/>
<path d="M90.4548 33.7283C89.635 29.6659 87.4446 26.0084 84.2502 23.3681C81.0558 20.7278 77.0514 19.265 72.9073 19.2244C68.7632 19.1839 64.731 20.5682 61.4856 23.1455C58.2402 25.7228 55.9786 29.3368 55.0795 33.3824C54.1804 37.4279 54.6983 41.6596 56.5465 45.369C58.3947 49.0783 61.461 52.0402 65.2322 53.7588C69.0033 55.4774 73.2504 55.8484 77.2624 54.8097C81.2744 53.771 84.8079 51.3856 87.2712 48.0529L81.5457 43.8216C80.3582 45.4264 78.7552 46.6766 76.9095 47.4375C75.0637 48.1984 73.0453 48.441 71.0718 48.1393C69.0984 47.8376 67.2447 47.0029 65.7107 45.7252C64.1766 44.4476 63.0204 42.7754 62.3667 40.8891H90.4548C90.926 38.5254 90.926 36.092 90.4548 33.7283ZM72.7296 26.3475C75.0095 26.348 77.2325 27.0591 79.0893 28.382C80.9461 29.7049 82.3444 31.5737 83.0895 33.7283H62.3667C63.1128 31.5737 64.5117 29.7051 66.369 28.3823C68.2262 27.0595 70.4495 26.3483 72.7296 26.3475" fill="#00519D"/>
<path d="M166.126 19.0597C162.533 19.0597 159.02 20.1252 156.032 22.1216C153.044 24.118 150.716 26.9555 149.341 30.2753C147.966 33.5952 147.606 37.2483 148.307 40.7726C149.008 44.2969 150.738 47.5342 153.279 50.0751C155.82 52.616 159.057 54.3464 162.582 55.0475C166.106 55.7485 169.759 55.3887 173.079 54.0136C176.399 52.6384 179.236 50.3097 181.233 47.322C183.229 44.3342 184.295 40.8215 184.295 37.2281C184.295 32.4095 182.38 27.7883 178.973 24.3811C175.566 20.9738 170.945 19.0597 166.126 19.0597V19.0597ZM166.126 48.273C163.941 48.273 161.805 47.625 159.988 46.4109C158.171 45.1968 156.755 43.4711 155.919 41.4522C155.083 39.4332 154.864 37.2117 155.291 35.0685C155.717 32.9253 156.77 30.9568 158.315 29.4118C159.86 27.8668 161.829 26.8149 163.973 26.3889C166.116 25.963 168.337 26.1822 170.356 27.0189C172.375 27.8556 174.1 29.2721 175.314 31.0893C176.527 32.9066 177.175 35.0429 177.174 37.2281C177.172 40.1566 176.007 42.9643 173.935 45.0342C171.863 47.1041 169.055 48.2668 166.126 48.2668" fill="#00519D"/>
<path d="M195.879 62.8332H188.752V98.9934H195.879V62.8332Z" fill="#00519D"/>
<path d="M109.528 77.4399C108.712 73.3964 106.531 69.7561 103.352 67.1283C100.172 64.5006 96.1858 63.0449 92.0609 63.0049C87.936 62.9649 83.9226 64.343 80.6925 66.9087C77.4623 69.4743 75.2115 73.0716 74.3169 77.0985C73.4222 81.1254 73.9379 85.3374 75.7778 89.0294C77.6177 92.7214 80.6699 95.6694 84.4237 97.3798C88.1774 99.0903 92.4048 99.4593 96.3982 98.4253C100.392 97.3912 103.908 95.0167 106.36 91.6994L100.663 87.4866C99.4815 89.0845 97.8864 90.3296 96.0496 91.0874C94.2127 91.8452 92.2038 92.0871 90.2395 91.7869C88.2753 91.4867 86.4303 90.6558 84.9036 89.3839C83.377 88.112 82.2266 86.4474 81.5766 84.5696H109.528C110 82.2164 110 79.7931 109.528 77.4399V77.4399ZM91.89 70.0962C94.1588 70.0961 96.3712 70.8034 98.2192 72.1197C100.067 73.4359 101.459 75.2956 102.2 77.4399H81.5766C82.3191 75.2956 83.7113 73.4361 85.5597 72.1199C87.4082 70.8037 89.6208 70.0964 91.89 70.0962Z" fill="#00519D"/>
<path d="M128.825 62.6596C125.043 62.6596 121.416 64.1619 118.742 66.8361C116.068 69.5103 114.566 73.1372 114.566 76.9191V98.9996H121.696V76.916C121.696 75.0251 122.447 73.2116 123.784 71.8745C125.121 70.5374 126.934 69.7862 128.825 69.7862C130.716 69.7862 132.53 70.5374 133.867 71.8745C135.204 73.2116 135.955 75.0251 135.955 76.916V98.9965H143.085V76.916C143.085 73.1341 141.582 69.5072 138.908 66.833C136.234 64.1588 132.607 62.6565 128.825 62.6565" fill="#00519D"/>
<path d="M218.824 62.6596C215.231 62.6596 211.718 63.7252 208.73 65.7215C205.743 67.7179 203.414 70.5554 202.039 73.8753C200.664 77.1951 200.304 80.8482 201.005 84.3725C201.706 87.8969 203.436 91.1342 205.977 93.6751C208.518 96.216 211.755 97.9464 215.28 98.6474C218.804 99.3484 222.457 98.9886 225.777 97.6135C229.097 96.2384 231.934 93.9097 233.931 90.9219C235.927 87.9341 236.993 84.4214 236.993 80.8281C236.993 78.4421 236.523 76.0796 235.61 73.8753C234.697 71.671 233.358 69.6681 231.671 67.981C229.984 66.2939 227.981 64.9556 225.777 64.0426C223.573 63.1295 221.21 62.6596 218.824 62.6596V62.6596ZM218.824 91.8761C216.639 91.8761 214.503 91.2281 212.686 90.0141C210.869 88.8002 209.453 87.0747 208.617 85.0559C207.781 83.0372 207.562 80.8158 207.988 78.6727C208.415 76.5296 209.467 74.561 211.012 73.0159C212.557 71.4708 214.526 70.4186 216.669 69.9923C218.812 69.566 221.033 69.7848 223.052 70.621C225.071 71.4572 226.796 72.8733 228.01 74.6901C229.224 76.5069 229.872 78.643 229.872 80.8281C229.872 83.7582 228.708 86.5683 226.636 88.6402C224.564 90.7121 221.754 91.8761 218.824 91.8761Z" fill="#00519D"/>
<path d="M176.424 63.1091L166.123 88.9869L155.819 63.1091H147.952L162.924 98.9965H169.319L184.288 63.1091H176.424Z" fill="#00519D"/>
<path d="M203.297 19.0597V26.1894C201.406 26.1894 199.593 26.9406 198.255 28.2777C196.918 29.6147 196.167 31.4282 196.167 33.3192V55.3966H189.037V33.3192C189.037 29.5373 190.54 25.9103 193.214 23.2362C195.888 20.562 199.515 19.0597 203.297 19.0597" fill="#00519D"/>
<path d="M255.958 62.1171V62.083C255.77 59.9178 254.977 57.8491 253.67 56.1126L253.624 56.0475C249.823 51.0877 243.589 50.6351 237.858 50.4956C240.604 46.4658 244.194 40.7093 244.318 33.2882C244.448 28.0431 242.836 23.4708 239.786 20.4205C238.636 19.2879 237.292 18.3712 235.818 17.7143C234.375 17.064 232.812 16.724 231.23 16.7161C229.633 16.6666 228.044 16.9491 226.562 17.5456C225.08 18.1422 223.739 19.0399 222.622 20.1818C220.207 22.5966 219.454 25.4516 218.79 27.978L218.768 28.0772C218.333 29.9738 217.507 31.7589 216.344 33.3192L214.655 35.5728L214.112 36.2206L214.01 36.3508C213.895 36.5027 213.762 36.6608 213.61 36.8375C213.458 37.0142 213.232 37.2746 213.021 37.5505C211.519 39.3091 209.901 40.966 208.179 42.5103L208.12 42.5599C206.298 44.2339 204.295 45.9388 202.541 47.374V55.4028C202.541 55.4028 209.627 50.1609 212.566 47.467C214.527 45.7131 216.369 43.8304 218.08 41.8315L218.235 41.6393C218.35 41.4874 218.483 41.3293 218.635 41.1526C218.787 40.9759 219.029 40.6969 219.255 40.4055L219.801 39.7514L222.088 36.6515C223.351 34.9568 224.296 33.0475 224.878 31.0159C225.002 30.5727 225.12 30.1108 225.232 29.6365C225.743 27.696 226.19 26.022 227.33 24.8813C227.627 24.6061 227.966 24.38 228.335 24.2117C229.636 23.6569 231.068 23.4828 232.464 23.7095C233.44 23.9563 234.343 24.4347 235.096 25.1044C236.832 26.8404 237.777 29.7543 237.693 33.1394V33.1704C237.594 39.2182 234.206 44.1316 231.729 47.7181L228.081 54.4821C227.965 54.6986 227.905 54.9405 227.907 55.1859C227.908 55.4313 227.97 55.6725 228.088 55.8878C228.206 56.1031 228.375 56.2856 228.581 56.4191C228.787 56.5525 229.023 56.6325 229.268 56.652L231.717 56.8411C232.551 56.9062 233.369 56.9372 234.159 56.9651C234.95 56.993 235.641 57.024 236.351 57.0798H236.537C241.72 57.1883 246.199 57.2813 248.332 60.0309C248.899 60.7659 249.251 61.6437 249.349 62.5666C249.44 63.8743 249.261 65.1868 248.825 66.4229C247.939 68.8998 247.725 71.5675 248.205 74.154C248.383 75.293 248.383 76.4528 248.205 77.5918V77.6445C247.963 79.2657 247.213 80.921 245.979 82.5671C245.418 83.3115 244.956 84.1252 244.603 84.9881L244.535 85.171C244.181 86.2445 243.999 87.367 243.995 88.4972C243.995 89.5511 243.484 91.0949 243.028 92.2666C242.596 93.3785 242.006 94.4225 241.277 95.3665C240.713 96.141 240.056 96.8428 239.321 97.4558L239.175 97.5643C238.391 98.1804 237.698 98.9048 237.117 99.7157L236.996 99.8335L236.807 100.122C234.175 104.152 232.656 106.48 230.012 108.442C228.212 109.733 226.17 110.647 224.007 111.126C223.409 111.266 222.823 111.384 222.25 111.467C220.629 111.722 218.994 111.87 217.355 111.911C211.698 111.924 206.061 111.244 200.569 109.886H200.516C196.815 108.982 193.058 108.323 189.27 107.915L186.43 107.899H74.4283C74.2943 107.905 74.1674 107.961 74.0732 108.056C73.9789 108.152 73.9243 108.279 73.9204 108.413C73.9165 108.548 73.9635 108.678 74.052 108.779C74.1405 108.88 74.2639 108.943 74.3973 108.956L188.783 114.515C192.219 114.893 195.626 115.492 198.985 116.306C204.994 117.795 211.162 118.545 217.352 118.538C219.289 118.499 221.222 118.33 223.136 118.033H223.167C224.097 117.9 225.802 117.478 227.172 117.103C228.778 116.681 230.318 116.038 231.748 115.193C236.732 112.227 238.93 108.95 242.16 104.006L242.535 103.491C242.739 103.214 242.98 102.967 243.251 102.757C245.433 101.05 247.221 98.8927 248.492 96.4317C249.763 93.9706 250.488 91.2641 250.617 88.4972C250.619 88.119 250.671 87.7427 250.772 87.3781C250.906 87.0887 251.07 86.8144 251.262 86.5597C253.156 84.0364 254.324 81.3829 254.733 78.6736C255.026 76.8398 255.026 74.9711 254.733 73.1372V73.0659C254.455 71.6223 254.562 70.1308 255.043 68.7416L255.062 68.692C255.81 66.5896 256.116 64.3556 255.961 62.1295" fill="#F3B331"/>
</g>
</svg>
