<svg width="264" height="256" viewBox="0 0 264 256" fill="none" xmlns="http://www.w3.org/2000/svg">
<path opacity="0.1" fill-rule="evenodd" clip-rule="evenodd" d="M113.11 187.519C113.11 215.562 90.4516 238.295 62.5014 238.295C34.5511 238.295 11.8929 215.562 11.8929 187.519C11.8929 159.476 34.5511 136.743 62.5014 136.743C90.4516 136.743 113.11 159.476 113.11 187.519ZM82.4563 184.18C82.4563 195.218 73.5378 204.166 62.5362 204.166C51.5346 204.166 42.616 195.218 42.616 184.18C42.616 173.142 51.5346 164.194 62.5362 164.194C73.5378 164.194 82.4563 173.142 82.4563 184.18Z" fill="#2BC866"/>
<path fill-rule="evenodd" clip-rule="evenodd" d="M62.5013 238.054C90.319 238.054 112.87 215.429 112.87 187.519C112.87 159.609 90.319 136.984 62.5013 136.984C34.6836 136.984 12.1329 159.609 12.1329 187.519C12.1329 215.429 34.6836 238.054 62.5013 238.054ZM82.6963 184.18C82.6963 195.351 73.6703 204.407 62.5362 204.407C51.402 204.407 42.376 195.351 42.376 184.18C42.376 173.009 51.402 163.953 62.5362 163.953C73.6703 163.953 82.6963 173.009 82.6963 184.18ZM62.5013 238.295C90.4516 238.295 113.11 215.562 113.11 187.519C113.11 159.476 90.4516 136.743 62.5013 136.743C34.5511 136.743 11.8929 159.476 11.8929 187.519C11.8929 215.562 34.5511 238.295 62.5013 238.295ZM62.5362 204.166C73.5378 204.166 82.4563 195.218 82.4563 184.18C82.4563 173.142 73.5378 164.194 62.5362 164.194C51.5346 164.194 42.616 173.142 42.616 184.18C42.616 195.218 51.5346 204.166 62.5362 204.166Z" fill="#1A9047"/>
<path opacity="0.1" fill-rule="evenodd" clip-rule="evenodd" d="M249.752 81.9454C249.752 117.207 221.203 145.792 185.986 145.792C150.769 145.792 122.219 117.207 122.219 81.9454C122.219 46.6837 150.769 18.0984 185.986 18.0984C221.203 18.0984 249.752 46.6837 249.752 81.9454ZM211.129 77.7468C211.129 91.6263 199.892 102.878 186.03 102.878C172.168 102.878 160.93 91.6263 160.93 77.7468C160.93 63.8673 172.168 52.6157 186.03 52.6157C199.892 52.6157 211.129 63.8673 211.129 77.7468Z" fill="#41D679"/>
<path fill-rule="evenodd" clip-rule="evenodd" d="M185.986 145.49C221.036 145.49 249.45 117.04 249.45 81.9454C249.45 46.8509 221.036 18.4012 185.986 18.4012C150.936 18.4012 122.522 46.8509 122.522 81.9454C122.522 117.04 150.936 145.49 185.986 145.49ZM211.431 77.7468C211.431 91.7935 200.059 103.181 186.03 103.181C172.001 103.181 160.628 91.7935 160.628 77.7468C160.628 63.7001 172.001 52.313 186.03 52.313C200.059 52.313 211.431 63.7001 211.431 77.7468ZM185.986 145.792C221.203 145.792 249.752 117.207 249.752 81.9454C249.752 46.6837 221.203 18.0984 185.986 18.0984C150.769 18.0984 122.219 46.6837 122.219 81.9454C122.219 117.207 150.769 145.792 185.986 145.792ZM186.03 102.878C199.892 102.878 211.129 91.6263 211.129 77.7468C211.129 63.8673 199.892 52.6157 186.03 52.6157C172.168 52.6157 160.93 63.8673 160.93 77.7468C160.93 91.6263 172.168 102.878 186.03 102.878Z" fill="#1A9047"/>
<path d="M146.325 254.757L59.2002 254.684C54.1687 254.68 49.3445 252.692 45.788 249.157C42.2315 245.621 40.2336 240.828 40.2336 235.829L40.2804 18.8475C40.2804 16.3713 40.7716 13.9194 41.7259 11.6318C42.6802 9.34428 44.079 7.26596 45.8422 5.51563C47.6054 3.7653 49.6986 2.37728 52.0021 1.43088C54.3055 0.484484 56.7742 -0.0017373 59.2669 4.66412e-06L146.391 0.0530415C148.883 0.0539119 151.35 0.542279 153.652 1.49026C155.953 2.43824 158.044 3.82727 159.806 5.57804C161.567 7.32881 162.964 9.40704 163.916 11.6941C164.869 13.9811 165.359 16.4321 165.358 18.9072L165.318 235.889C165.32 238.367 164.83 240.822 163.876 243.111C162.922 245.401 161.523 247.482 159.759 249.234C157.995 250.987 155.9 252.376 153.595 253.324C151.29 254.271 148.819 254.758 146.325 254.757Z" fill="#2BC866"/>
<path fill-rule="evenodd" clip-rule="evenodd" d="M41.2925 18.8478L41.2458 235.829C41.2458 240.561 43.1371 245.099 46.504 248.446C49.8708 251.793 54.4377 253.675 59.201 253.678L146.326 253.751C148.687 253.753 151.026 253.292 153.208 252.395C155.39 251.498 157.373 250.182 159.043 248.523C160.713 246.864 162.037 244.895 162.94 242.727C163.843 240.559 164.307 238.236 164.306 235.89L164.346 18.907C164.347 16.564 163.883 14.2435 162.981 12.0785C162.079 9.91349 160.757 7.94613 159.09 6.28876C157.422 4.63139 155.443 3.31646 153.264 2.41905C151.085 1.52164 148.75 1.05933 146.391 1.05851L59.2663 1.00547C56.9065 1.00382 54.5695 1.4641 52.3889 2.36001C50.2083 3.25592 48.2268 4.5699 46.5577 6.22685C44.8885 7.8838 43.5644 9.85125 42.6609 12.0168C41.7575 14.1823 41.2925 16.5036 41.2925 18.8478ZM40.2804 18.8475L40.2336 235.829C40.2336 240.828 42.2315 245.621 45.788 249.157C49.3445 252.692 54.1687 254.68 59.2002 254.684L146.325 254.757C148.819 254.758 151.29 254.271 153.595 253.324C155.9 252.376 157.995 250.987 159.759 249.234C161.523 247.482 162.922 245.401 163.876 243.111C164.83 240.822 165.32 238.367 165.318 235.889L165.358 18.9072C165.359 16.4321 164.869 13.9811 163.916 11.6941C162.964 9.40704 161.567 7.32881 159.806 5.57804C158.044 3.82727 155.953 2.43824 153.652 1.49026C151.35 0.542279 148.883 0.0539119 146.391 0.0530415L59.2669 4.66412e-06C56.7742 -0.00173731 54.3055 0.484484 52.0021 1.43088C49.6986 2.37728 47.6054 3.7653 45.8422 5.51563C44.079 7.26596 42.6802 9.34428 41.7259 11.6318C40.7716 13.9194 40.2804 16.3713 40.2804 18.8475Z" fill="#36383F"/>
<path d="M146.298 7.74324H129.407C128.857 7.7553 128.314 7.87496 127.81 8.0954C127.306 8.31584 126.851 8.63273 126.47 9.02797C126.09 9.42322 125.792 9.88907 125.592 10.3989C125.393 10.9087 125.297 11.4526 125.309 11.9994V15.0423C125.322 15.589 125.226 16.1329 125.026 16.6427C124.827 17.1526 124.529 17.6184 124.148 18.0136C123.768 18.4089 123.312 18.7258 122.809 18.9462C122.305 19.1667 121.762 19.2863 121.212 19.2984H88.2839C87.1717 19.2706 86.1157 18.8066 85.3467 18.0079C84.5777 17.2092 84.1581 16.1407 84.1796 15.0356V11.9927C84.1929 11.4454 84.0974 10.9009 83.8986 10.3902C83.6998 9.87964 83.4015 9.41301 83.0209 9.01706C82.6403 8.62111 82.1848 8.30362 81.6805 8.08276C81.1762 7.86191 80.633 7.74203 80.082 7.72998H59.347C57.6015 7.72911 55.873 8.06988 54.2601 8.73281C52.6473 9.39574 51.1817 10.3679 49.9472 11.5936C48.7126 12.8194 47.7333 14.2747 47.0651 15.8766C46.397 17.4784 46.0531 19.1953 46.0531 20.9292L46.0063 232.714C46.0055 234.448 46.3485 236.165 47.0159 237.767C47.6832 239.369 48.6618 240.825 49.8957 242.051C51.1296 243.278 52.5947 244.25 54.2072 244.914C55.8197 245.578 57.5481 245.92 59.2936 245.92L146.245 245.973C147.99 245.973 149.719 245.633 151.332 244.97C152.946 244.307 154.412 243.335 155.647 242.109C156.882 240.884 157.862 239.428 158.531 237.827C159.2 236.225 159.544 234.508 159.545 232.773L159.585 20.9823C159.589 19.2461 159.248 17.5262 158.582 15.921C157.916 14.3158 156.938 12.8567 155.704 11.6272C154.47 10.3976 153.004 9.42175 151.39 8.75532C149.776 8.0889 148.046 7.74498 146.298 7.74324Z" fill="#FAFAFA"/>
<path opacity="0.25" d="M146.298 7.74324H129.407C128.857 7.7553 128.314 7.87496 127.81 8.0954C127.306 8.31584 126.851 8.63273 126.47 9.02797C126.09 9.42322 125.792 9.88907 125.592 10.3989C125.393 10.9087 125.297 11.4526 125.309 11.9994V15.0423C125.322 15.589 125.226 16.1329 125.026 16.6427C124.827 17.1526 124.529 17.6184 124.148 18.0136C123.768 18.4089 123.312 18.7258 122.809 18.9462C122.305 19.1667 121.762 19.2863 121.212 19.2984H88.2839C87.1717 19.2706 86.1157 18.8066 85.3467 18.0079C84.5777 17.2092 84.1581 16.1407 84.1796 15.0356V11.9927C84.1929 11.4454 84.0974 10.9009 83.8986 10.3902C83.6998 9.87964 83.4015 9.41301 83.0209 9.01706C82.6403 8.62111 82.1848 8.30362 81.6805 8.08276C81.1762 7.86191 80.633 7.74203 80.082 7.72998H59.347C57.6015 7.72911 55.873 8.06988 54.2601 8.73281C52.6473 9.39574 51.1817 10.3679 49.9472 11.5936C48.7126 12.8194 47.7333 14.2747 47.0651 15.8766C46.397 17.4784 46.0531 19.1953 46.0531 20.9292L46.0063 232.714C46.0055 234.448 46.3485 236.165 47.0159 237.767C47.6832 239.369 48.6618 240.825 49.8957 242.051C51.1296 243.278 52.5947 244.25 54.2072 244.914C55.8197 245.578 57.5481 245.92 59.2936 245.92L146.245 245.973C147.99 245.973 149.719 245.633 151.332 244.97C152.946 244.307 154.412 243.335 155.647 242.109C156.882 240.884 157.862 239.428 158.531 237.827C159.2 236.225 159.544 234.508 159.545 232.773L159.585 20.9823C159.589 19.2461 159.248 17.5262 158.582 15.921C157.916 14.3158 156.938 12.8567 155.704 11.6272C154.47 10.3976 153.004 9.42175 151.39 8.75532C149.776 8.0889 148.046 7.74498 146.298 7.74324Z" fill="url(#paint0_linear_203_7065)"/>
<path fill-rule="evenodd" clip-rule="evenodd" d="M59.2936 245.92L146.245 245.973C147.99 245.973 149.719 245.633 151.332 244.97C152.946 244.307 154.412 243.335 155.647 242.109C156.882 240.884 157.862 239.428 158.531 237.827C159.2 236.225 159.544 234.508 159.545 232.773L159.585 20.9823C159.589 19.2461 159.248 17.5262 158.582 15.921C157.916 14.3158 156.938 12.8567 155.704 11.6272C154.47 10.3976 153.004 9.42175 151.39 8.75533C149.776 8.0889 148.046 7.74498 146.298 7.74325H129.407C128.857 7.7553 128.314 7.87496 127.81 8.0954C127.306 8.31584 126.851 8.63273 126.47 9.02797C126.09 9.42322 125.792 9.88907 125.592 10.3989C125.393 10.9087 125.297 11.4526 125.309 11.9994V15.0423C125.322 15.589 125.226 16.1329 125.026 16.6427C124.827 17.1526 124.529 17.6184 124.148 18.0136C123.768 18.4089 123.312 18.7258 122.809 18.9462C122.305 19.1667 121.762 19.2863 121.212 19.2984H88.2839C87.1717 19.2706 86.1157 18.8066 85.3467 18.0079C84.5777 17.2092 84.1581 16.1407 84.1796 15.0356V11.9927C84.1929 11.4454 84.0974 10.9009 83.8986 10.3903C83.6997 9.87965 83.4015 9.41301 83.0209 9.01706C82.6403 8.62111 82.1848 8.30362 81.6805 8.08277C81.1762 7.86191 80.633 7.74203 80.082 7.72998H59.347C57.6015 7.72911 55.873 8.06988 54.2601 8.73281C52.6473 9.39575 51.1817 10.3679 49.9472 11.5936C48.7126 12.8194 47.7333 14.2747 47.0651 15.8766C46.397 17.4784 46.0531 19.1953 46.0531 20.9292L46.0063 232.714C46.0055 234.448 46.3485 236.165 47.0159 237.767C47.6832 239.369 48.6618 240.825 49.8957 242.051C51.1296 243.278 52.5947 244.25 54.2072 244.914C55.8197 245.578 57.5481 245.92 59.2936 245.92ZM83.6735 15.0308V11.9806C83.6852 11.4994 83.6014 11.0206 83.4266 10.5716C83.2518 10.1227 82.9895 9.71239 82.6549 9.36425C82.3202 9.01612 81.9197 8.73696 81.4763 8.54278C81.0346 8.34931 80.5589 8.24397 80.0763 8.23272H59.347C57.668 8.23188 56.005 8.55967 54.4536 9.19735C52.9022 9.83503 51.4924 10.7701 50.3049 11.9492C49.1174 13.1282 48.1754 14.5282 47.5327 16.069C46.8899 17.6098 46.5591 19.2614 46.5591 20.9292L46.5124 232.714C46.5116 234.382 46.8416 236.033 47.4835 237.575C48.1254 239.116 49.0667 240.516 50.2537 241.696C51.4406 242.875 52.8499 243.811 54.401 244.45C55.9521 245.088 57.6146 245.417 59.2936 245.417L146.245 245.47C147.924 245.471 149.587 245.143 151.139 244.505C152.691 243.868 154.101 242.933 155.289 241.754C156.477 240.575 157.42 239.175 158.063 237.634C158.707 236.093 159.038 234.441 159.039 232.773L159.079 20.9822C159.082 19.312 158.754 17.6567 158.114 16.1125C157.473 14.5684 156.532 13.1649 155.345 11.9821C154.158 10.7994 152.748 9.86062 151.196 9.21955C149.643 8.57852 147.979 8.24769 146.298 8.24598H129.413C128.931 8.25724 128.455 8.36239 128.014 8.55549C127.571 8.74931 127.171 9.02793 126.836 9.37545C126.502 9.72296 126.239 10.1326 126.064 10.5808C125.889 11.0291 125.804 11.5073 125.815 11.988L125.816 11.9994L125.815 15.0369C125.828 15.6477 125.721 16.2551 125.498 16.8246C125.275 17.3961 124.94 17.9182 124.514 18.3611C124.087 18.8041 123.577 19.1592 123.013 19.4063C122.448 19.6534 121.84 19.7875 121.223 19.801L121.212 19.8012L88.2712 19.8011C87.0253 19.77 85.8424 19.2501 84.981 18.3554C84.1207 17.4619 83.6508 16.2669 83.6735 15.0308Z" fill="#1A9047"/>
<path d="M96.399 228.166C96.403 228.496 96.3083 228.819 96.1269 229.095C95.9456 229.371 95.6858 229.587 95.3805 229.717C95.0751 229.846 94.7381 229.882 94.412 229.821C94.086 229.759 93.7856 229.603 93.5491 229.372C93.3126 229.141 93.1505 228.845 93.0835 228.522C93.0164 228.199 93.0475 227.864 93.1726 227.558C93.2978 227.253 93.5114 226.991 93.7864 226.807C94.0614 226.622 94.3854 226.523 94.7172 226.522C94.9363 226.52 95.1536 226.561 95.3567 226.643C95.5598 226.725 95.7447 226.845 95.9009 226.998C96.0571 227.151 96.1814 227.332 96.2669 227.533C96.3524 227.733 96.3973 227.948 96.399 228.166Z" fill="#2BC866"/>
<path d="M105.742 228.093C105.745 228.421 105.649 228.742 105.468 229.016C105.287 229.29 105.028 229.505 104.724 229.632C104.421 229.76 104.085 229.796 103.761 229.734C103.437 229.673 103.139 229.517 102.903 229.288C102.668 229.058 102.507 228.764 102.44 228.443C102.373 228.122 102.403 227.788 102.527 227.484C102.651 227.18 102.863 226.92 103.136 226.736C103.409 226.551 103.73 226.452 104.06 226.449C104.502 226.449 104.926 226.621 105.24 226.929C105.555 227.236 105.735 227.655 105.742 228.093Z" fill="#2BC866"/>
<path d="M114.623 229.176C115.267 228.521 115.254 227.472 114.595 226.833C113.936 226.193 112.879 226.206 112.236 226.861C111.592 227.516 111.605 228.565 112.264 229.205C112.923 229.844 113.98 229.831 114.623 229.176Z" fill="#2BC866"/>
<g opacity="0.3">
<path opacity="0.3" d="M135.902 110.029C135.902 110.553 135.746 111.066 135.453 111.502C135.159 111.938 134.742 112.278 134.254 112.479C133.767 112.68 133.23 112.732 132.712 112.63C132.194 112.527 131.719 112.275 131.345 111.904C130.972 111.533 130.718 111.061 130.615 110.546C130.512 110.032 130.565 109.499 130.767 109.014C130.969 108.53 131.311 108.115 131.75 107.824C132.189 107.533 132.705 107.377 133.233 107.377C133.941 107.377 134.62 107.657 135.121 108.154C135.621 108.651 135.902 109.326 135.902 110.029Z" fill="#2BC866"/>
</g>
<path d="M167.507 39.9116C167.01 40.5599 166.093 41.3717 165.363 41.727C164.89 42.0403 164.868 42.5079 164.604 42.9559C164.268 43.5242 163.971 43.8659 163.971 44.5479C163.971 45.1944 164.243 45.5652 164.592 46.0406L164.604 46.0561C165.384 47.1193 165.996 48.1072 165.996 49.5054C165.996 50.3911 166.483 51.1632 167.282 51.5931C167.738 51.8384 168.276 51.8668 168.723 52.0889C169.067 52.26 169.441 52.6378 169.735 52.8849C171.188 54.1065 169.676 56.2485 170.86 57.5631C171.352 58.1102 172.312 58.5724 172.645 59.1969C172.974 59.8152 172.714 61.2675 172.504 61.8921C172.128 63.0135 171.309 63.9604 171.309 65.1878C171.309 66.0434 171.885 66.6673 172.469 67.2476C173.069 67.8434 174.019 68.3564 173.636 69.3284C173.301 70.1778 172.334 70.7158 172.322 71.6535C172.31 72.5233 172.059 73.8245 172.828 74.4604C173.396 74.9306 174.131 75.2391 174.543 75.8849C174.696 76.1259 174.592 76.6198 174.606 76.8903C174.639 77.5226 174.701 78.1926 175.105 78.7057C175.772 79.5526 177.171 79.7788 178.205 79.5506C178.608 79.4615 178.929 79.2158 179.252 78.985C179.427 78.8596 179.479 78.2831 179.723 78.5521C180.486 79.3938 183.006 79.6071 183.427 78.3985C183.619 77.8484 183.591 77.0695 184.313 77.2674C184.885 77.4242 186.084 77.3945 186.618 77.1417C187.06 76.9328 187.146 76.6016 187.314 76.234C187.619 75.568 186.957 74.7816 187.947 74.7816C188.627 74.7816 189.53 74.9293 190.14 74.5861C190.71 74.2652 190.667 73.7298 190.667 73.1478C190.667 71.9946 190.708 71.7652 191.904 71.7652C192.529 71.7652 194.189 71.6597 194.21 70.8017C194.222 70.28 194.304 69.6348 194.146 69.1329C194.025 68.7467 193.575 68.6725 193.732 68.2042C193.841 67.8793 194.513 67.6282 194.8 67.5549L194.814 67.5512C196.123 67.2171 197.963 66.747 197.12 64.9784C196.818 64.3459 195.43 64.028 195.981 63.1909C196.476 62.439 197.423 61.8974 197.366 60.8448C197.283 59.3182 196.457 59.1145 195.067 58.6383C194.871 58.571 194.226 58.5216 194.21 58.1915C194.175 57.5057 194.594 57.1463 194.962 56.6204C195.368 56.0408 196.159 55.2943 196.101 54.5397C196.047 53.851 195.238 52.9552 194.561 52.815C193.637 52.6238 190.973 52.8788 191.834 51.0834C192.367 49.9708 193.077 49.132 192.017 47.9832C191.274 47.1781 188.431 47.8379 188.523 46.4122C188.598 45.2588 188.783 43.5473 187.378 43.0397C186.695 42.7932 185.64 43.1095 184.903 43.1095C184.306 43.1095 183.413 43.3048 182.949 42.8442C182.508 42.4054 182.443 41.8802 182.092 41.4058C181.386 40.4517 180.642 40.1812 179.702 40.9031C179.105 41.3614 178.081 41.9426 177.284 41.6991C176.695 41.5189 176.573 41.1643 176.307 40.6657C176.058 40.1984 175.055 39.2918 174.501 39.3669C173.752 39.4683 173.368 40.1276 172.771 40.533C172.118 40.9773 170.658 41.7372 170.044 40.9101C169.68 40.4184 169.276 39.7356 168.681 39.5206C168.059 39.296 167.84 39.477 167.507 39.9116Z" fill="#77401D"/>
<path d="M164.927 39.0875C165.663 39.4426 166.069 40.4173 166.628 40.9727C166.939 41.4354 167.387 42.9874 167.387 43.5423C167.387 43.9461 167.64 44.2793 167.64 44.6874C167.64 45.4502 167.986 46.2078 168.28 46.9008C168.835 48.2109 168.761 49.7561 168.273 51.0763C167.92 52.0298 167.237 52.4676 166.628 53.2478C165.559 54.6168 165.105 56.4686 164.878 58.1494C164.676 59.6419 164.73 61.1583 164.73 62.6601C164.73 63.5477 164.947 64.8022 164.47 65.6136C163.645 67.0194 161.568 67.6913 160.225 68.4764C159.382 68.9691 158.429 69.4225 157.744 70.1312C156.296 71.6283 156.305 73.1258 156 75.1166C155.803 76.4081 155.24 78.3139 153.498 77.9934C152.803 77.8654 152.261 77.3988 151.614 77.2253C150.029 76.8005 147.975 77.436 146.441 77.6862C145.954 77.7657 145.382 77.9465 145.091 77.4208C144.853 76.9904 144.857 76.4733 144.36 76.2199C143.909 75.9891 143.265 76.5411 142.772 76.5411C142.195 76.5411 141.701 76.0818 141.261 75.773C140.663 75.354 140.706 74.7031 140.368 74.1531C140.039 73.6179 139.253 73.7156 138.716 73.8528C137.858 74.0721 137.286 74.5 136.383 74.3346C135.361 74.1476 135.1 73.8174 134.752 72.8962C134.506 72.2446 134.609 71.453 134.049 70.9551C133.673 70.6208 133.035 70.5083 132.545 70.5083C132.324 70.5083 131.836 70.5344 131.708 70.3128C131.076 69.213 131.978 68.3839 132.081 67.3103C132.2 66.0649 131.32 65.7219 130.317 65.3483C130.008 65.2335 129.224 65.0544 129.185 64.6431C129.129 64.0546 129.179 63.5114 129.431 62.9743C129.764 62.2657 132.234 60.6123 131.378 59.7624C130.792 59.1807 129.918 59.0665 130.57 58.0237C131.117 57.1473 131.912 56.406 132.257 55.4123C132.464 54.815 132.364 54.7682 131.911 54.556L131.891 54.5465C131.626 54.4221 131.084 54.3323 130.977 54.0159C130.794 53.4698 131.337 52.8691 131.638 52.4797C132.194 51.7612 132.777 51.2523 133.648 51.0274C134.372 50.8406 135.105 50.2682 135.476 49.6169C136.012 48.6751 134.567 47.4471 135.328 46.6913C136.279 45.7464 137.935 45.7472 139.096 45.246C140.08 44.8207 139.495 43.5682 139.623 42.7323C139.736 41.9917 139.954 41.601 140.691 41.3568C141.373 41.1312 142.243 41.0134 142.955 40.9797C143.919 40.9341 145.442 40.7996 145.851 39.7857C146.029 39.343 145.894 39.0345 146.314 38.6825C147.122 38.0066 147.842 37.8307 148.887 37.8307C149.585 37.8307 150.271 37.9337 150.968 37.9564C151.621 37.9776 152.169 38.4167 152.809 38.4591C153.479 38.5035 154.208 38.1771 154.707 37.7329C155.14 37.3477 155.764 36.9087 156.352 36.8531L156.395 36.8491C157.319 36.7614 158.856 36.6157 159.571 37.3C160.337 38.0326 160.172 39.4331 161.595 39.4645C162.696 39.4888 163.837 38.5614 164.927 39.0875Z" fill="#77401D"/>
<path d="M180.329 58.5913C179.762 52.3463 176.438 46.2671 171.113 42.8993C165.787 39.5316 158.519 39.2266 153.194 42.5413C149.838 44.7774 147.302 48.0339 145.966 51.8226C144.565 55.5616 145.172 58.6576 145.205 62.6419C145.205 64.7102 145.486 70.2591 147.281 71.2999L175.31 76.2919C178.874 71.1673 180.903 64.8362 180.329 58.5913Z" fill="#77401D"/>
<path d="M179.354 53.8115C178.687 50.099 175.07 46.5191 172.227 44.0065C168.984 41.1691 168.523 41.2951 164.219 41.189C159.661 41.0697 154.682 41.0895 151.125 43.9269C149.123 45.4981 147.875 47.7654 146.847 50.0526C144.471 55.3561 144.845 61.4088 145.559 67.1632C146.273 72.9175 147.514 78.3537 152.233 81.748L172.167 78.6852C176.565 77.0609 178.033 72.0557 179.274 67.5808C180.516 63.106 180.129 58.3924 179.354 53.8115Z" fill="#77401D"/>
<path d="M146.227 57.4909C146.507 52.0481 152.34 46.5457 157.805 47.0495L175.551 50.1852V53.1154L175.751 89.6835C169.01 91.2218 162.171 92.3049 155.283 92.9253L155.129 85.5931C155.129 85.5931 148.115 84.5191 146.554 75.4699C145.78 70.942 145.913 63.5436 146.227 57.4909Z" fill="#DE9755"/>
<path d="M155.129 85.5928C159.537 85.6109 163.866 84.4326 167.649 82.1853C167.649 82.1853 164.639 88.5761 155.176 87.8535L155.129 85.5928Z" fill="#9F4F36"/>
<path d="M152.36 44.5301C149.023 46.7907 146.674 50.4966 145.539 54.6002L146.1 57.9614C146.881 56.3371 146.981 54.5936 148.596 52.9296C150.069 51.5951 151.864 50.6611 153.808 50.2182C159.894 48.6801 161.943 46.4858 164.633 42.5346C160.688 41.5468 155.723 42.2628 152.36 44.5301Z" fill="#77401D"/>
<path d="M178.627 53.3872C177.729 50.3611 175.983 47.6513 173.592 45.5746C171.202 43.4979 168.265 42.14 165.126 41.6597L164.633 42.5281L160.008 47.898C159.583 48.3097 159.283 48.8309 159.14 49.4029C159.116 49.796 159.194 50.1887 159.366 50.5437C159.537 50.8987 159.797 51.2042 160.121 51.4315C161.589 52.6248 163.638 52.6977 165.534 52.7574C167.429 52.817 169.498 52.9629 170.872 54.249C172.588 55.8533 172.548 58.578 171.974 60.8785C171.375 63.5889 171.184 66.3726 171.406 69.1387C171.62 71.227 174.396 66.1555 176.225 67.2096C176.732 67.5013 175.357 75.6953 175.891 75.4434C176.425 75.1914 176.365 72.248 176.558 71.6977C177.565 68.7501 178.359 65.7349 178.934 62.675C179.509 59.5934 179.404 56.4247 178.627 53.3872Z" fill="#77401D"/>
<path d="M173.442 69.1453C173.468 68.6882 173.61 68.2452 173.855 67.8576C174.1 67.47 174.441 67.1507 174.844 66.9294C175.248 66.7081 175.701 66.5922 176.162 66.5925C176.623 66.5928 177.076 66.7093 177.479 66.9311C178.414 67.4879 179.114 68.6017 178.981 70.6966C178.627 76.2786 173.055 74.7737 173.061 74.6146C173.068 74.4555 173.275 71.459 173.442 69.1453Z" fill="#DE9755"/>
<path d="M174.903 72.5992C174.903 72.5992 174.997 72.6787 175.157 72.7649C175.383 72.877 175.643 72.8984 175.884 72.8246C176.492 72.6456 177.059 71.744 177.152 70.7429C177.198 70.2648 177.136 69.7826 176.972 69.3309C176.933 69.1549 176.852 68.9908 176.736 68.8524C176.62 68.714 176.472 68.6053 176.305 68.5353C176.195 68.4974 176.075 68.4992 175.966 68.5404C175.858 68.5817 175.767 68.6597 175.711 68.7607C175.624 68.9132 175.651 69.0259 175.624 69.0325C175.597 69.0392 175.504 68.9331 175.571 68.7077C175.606 68.5696 175.692 68.4493 175.811 68.3696C175.975 68.265 176.173 68.2271 176.365 68.2635C176.592 68.3245 176.8 68.4425 176.968 68.6062C177.137 68.7699 177.26 68.9737 177.326 69.1983C177.534 69.6969 177.617 70.2385 177.566 70.7761C177.453 71.8964 176.799 72.9108 175.971 73.0897C175.818 73.125 175.659 73.1249 175.506 73.0892C175.354 73.0536 175.211 72.9834 175.09 72.8842C174.903 72.7384 174.883 72.6124 174.903 72.5992Z" fill="#9F4F36"/>
<path d="M174.863 46.0549C175.618 46.9294 176.289 47.8728 176.865 48.8724C177.506 49.9507 178.058 51.0793 178.514 52.2468C179.075 53.6748 179.495 55.1535 179.768 56.6621C180.278 59.4084 180.249 62.2269 179.682 64.9621C179.635 65.2126 179.575 65.4605 179.501 65.7046C179.435 65.93 179.375 66.1488 179.321 66.3676C179.23 66.7199 179.114 67.0655 178.974 67.4018L178.734 68.0647L178.641 68.2835C178.652 68.2041 178.672 68.1263 178.701 68.0514C178.754 67.8857 178.827 67.6736 178.914 67.3885C179.036 67.0493 179.141 66.7041 179.228 66.3543L179.395 65.6914C179.463 65.4469 179.519 65.1991 179.562 64.9489C180.093 62.2287 180.107 59.4336 179.602 56.7085C179.326 55.2089 178.913 53.7376 178.367 52.3131C177.917 51.153 177.382 50.0273 176.765 48.9454L176.385 48.2824L176.011 47.7189L175.691 47.2217C175.591 47.0692 175.491 46.9433 175.404 46.824L174.997 46.2671L174.863 46.0549Z" fill="#FFA300"/>
<path d="M175.411 47.7588C175.403 47.8146 175.392 47.87 175.377 47.9245C175.331 48.0878 175.254 48.2409 175.15 48.3753C174.752 48.8525 174.216 49.1972 173.615 49.3631C172.868 49.6084 171.974 49.8272 170.946 50.0261C169.847 50.2643 168.731 50.4238 167.609 50.5034C166.497 50.5872 165.378 50.5561 164.272 50.4106C163.361 50.2857 162.466 50.0634 161.603 49.7476C161.026 49.5373 160.47 49.2755 159.941 48.9654C159.795 48.8838 159.655 48.793 159.521 48.6935C159.427 48.6339 159.374 48.5941 159.38 48.5875C159.387 48.5808 159.587 48.7068 159.974 48.9057C160.51 49.1933 161.068 49.4372 161.643 49.6349C162.496 49.9255 163.377 50.1299 164.272 50.2448C165.379 50.3835 166.497 50.4124 167.609 50.331C169.615 50.1617 171.598 49.7908 173.529 49.2239C174.114 49.0715 174.643 48.7537 175.05 48.309C175.195 48.1428 175.316 47.9577 175.411 47.7588Z" fill="#FFA300"/>
<path d="M174.396 45.856C174.396 45.856 174.396 45.8957 174.303 45.9687C174.209 46.0416 174.142 46.1476 174.009 46.267C173.628 46.6124 173.209 46.9148 172.761 47.1686C171.259 47.9878 169.57 48.4101 167.856 48.395C166.155 48.3831 164.463 48.1604 162.817 47.7321C162.19 47.573 161.683 47.4338 161.329 47.3343C161.147 47.2896 160.969 47.232 160.795 47.162C160.983 47.1814 161.168 47.2169 161.349 47.268L162.844 47.6128C164.482 48.0202 166.161 48.2426 167.849 48.2757C169.537 48.2836 171.202 47.8855 172.701 47.1155C173.308 46.7546 173.876 46.3325 174.396 45.856Z" fill="#FFA300"/>
<path d="M173.242 45.193C173.115 45.251 172.983 45.2955 172.848 45.3256C172.588 45.4051 172.18 45.5045 171.733 45.604C169.249 46.1152 166.683 46.0994 164.205 45.5576C163.732 45.4581 163.351 45.3521 163.091 45.2725C162.955 45.2388 162.824 45.1922 162.697 45.1333C162.838 45.141 162.976 45.1655 163.111 45.2062C163.371 45.2725 163.778 45.3521 164.225 45.4383C165.459 45.6748 166.713 45.7969 167.969 45.8029C169.222 45.8057 170.473 45.6992 171.707 45.4847C172.187 45.3985 172.567 45.3256 172.828 45.2659C172.962 45.2251 173.101 45.2007 173.242 45.193Z" fill="#FFA300"/>
<path d="M165.74 40.4531C165.708 40.5894 165.663 40.7225 165.607 40.8509C165.507 41.1028 165.347 41.4608 165.133 41.8917C163.974 44.1551 162.277 46.1031 160.188 47.5665C159.788 47.845 159.454 48.0505 159.22 48.1831C159.099 48.2579 158.972 48.3222 158.84 48.3753C158.943 48.2809 159.058 48.1986 159.18 48.13C159.407 47.9775 159.734 47.7588 160.121 47.4671C161.13 46.7173 162.054 45.8616 162.877 44.9147C163.702 43.9696 164.42 42.9382 165.02 41.8387C165.253 41.4144 165.427 41.063 165.547 40.8244C165.595 40.6929 165.66 40.5681 165.74 40.4531Z" fill="#FFA300"/>
<path d="M145.766 52.4456C145.766 52.4456 145.766 52.3859 145.859 52.2997C145.953 52.2136 146.026 52.0743 146.166 51.9086C146.552 51.4329 146.962 50.977 147.394 50.5429C148.035 49.8967 148.734 49.3108 149.483 48.7928C149.929 48.4907 150.392 48.2162 150.871 47.9707C151.391 47.7128 151.929 47.4912 152.48 47.3078C154.416 46.6856 156.459 46.4601 158.486 46.6448C159.097 46.7005 159.704 46.7979 160.301 46.9365C160.515 46.9829 160.675 47.036 160.782 47.0625C160.84 47.0741 160.896 47.0942 160.949 47.1221C160.949 47.1221 160.715 47.0824 160.281 47.0028C159.681 46.8909 159.075 46.8113 158.466 46.7641C156.459 46.6018 154.44 46.8269 152.52 47.4271C150.613 48.073 148.883 49.1511 147.468 50.5761C146.914 51.1131 146.493 51.5705 146.206 51.902L145.873 52.2732C145.842 52.3335 145.806 52.3912 145.766 52.4456Z" fill="#FFA300"/>
<path d="M149.984 46.4394C150.12 46.337 150.262 46.2439 150.411 46.161C150.59 46.0492 150.775 45.9474 150.965 45.8561C151.179 45.75 151.412 45.6174 151.686 45.5047C151.959 45.392 152.253 45.2528 152.587 45.1401C152.934 45.0074 153.288 44.8923 153.648 44.7953C155.294 44.3347 157.008 44.1663 158.713 44.2981C159.1 44.3379 159.474 44.3711 159.821 44.4373C160.168 44.5036 160.488 44.5567 160.775 44.623C161.037 44.6778 161.295 44.7464 161.549 44.8285C161.744 44.8805 161.935 44.9425 162.123 45.0141C162.286 45.0662 162.444 45.1305 162.597 45.2064C162.427 45.1811 162.259 45.1389 162.097 45.0804C161.909 45.0148 161.717 44.9617 161.523 44.9213C161.296 44.8616 161.036 44.7887 160.749 44.7357C160.462 44.6826 160.141 44.6163 159.801 44.5766C159.461 44.5368 159.087 44.4904 158.7 44.4572C157.858 44.395 157.012 44.395 156.17 44.4572C155.332 44.5457 154.502 44.6986 153.688 44.9147C153.314 45.0207 152.954 45.1136 152.633 45.2395C152.313 45.3655 152.006 45.4715 151.733 45.5842C151.459 45.6969 151.225 45.8096 151.012 45.9091C150.798 46.0085 150.618 46.0947 150.471 46.1743C150.321 46.2833 150.157 46.3724 149.984 46.4394Z" fill="#FFA300"/>
<path d="M177.893 74.0047C178 73.9517 178.167 74.0047 178.354 74.2102C178.618 74.5053 178.794 74.8682 178.861 75.2577C178.911 75.5472 178.911 75.8432 178.861 76.1328C178.8 76.4943 178.657 76.837 178.44 77.1338C178.19 77.4742 177.857 77.7457 177.473 77.9227C177.018 78.1349 176.503 78.1818 176.018 78.0553C175.543 77.9268 175.125 77.6445 174.83 77.2531C174.576 76.9231 174.409 76.5359 174.343 76.1261C174.294 75.802 174.311 75.4716 174.393 75.1541C174.474 74.8366 174.618 74.5383 174.816 74.2765C175.045 73.9559 175.357 73.7019 175.717 73.5406C175.971 73.4412 176.145 73.4545 176.218 73.5406C176.291 73.6268 176.064 74.2036 175.884 74.8334C175.791 75.1448 175.791 75.4766 175.884 75.788C175.927 75.927 176.001 76.0546 176.1 76.1613C176.2 76.2681 176.322 76.3512 176.458 76.4046C176.574 76.4362 176.696 76.4362 176.812 76.4046C176.96 76.3497 177.096 76.2663 177.212 76.1593C177.438 75.9325 177.586 75.6398 177.633 75.324C177.773 74.661 177.659 74.1108 177.893 74.0047Z" fill="#41D679"/>
<path d="M141.762 118.044L145.98 136.773L143.984 149.342H190.306L187.283 90.6647L175.731 89.6902L147.515 94.417L141.762 118.044Z" fill="#41D679"/>
<path d="M153.548 94.0787C153.548 94.0787 141.482 92.9782 135.736 101.139C132.219 106.124 127.28 117.587 127.28 117.587L143.344 120.338L153.548 94.0787Z" fill="#41D679"/>
<g opacity="0.3">
<path opacity="0.3" d="M169.698 111.806C173.088 115.962 174.683 121.24 176.899 126.119C179.755 132.404 183.712 138.125 187.643 143.806C187.937 144.23 188.311 144.708 188.858 144.648C189.405 144.588 189.665 143.985 189.806 143.461C190.574 140.211 190.341 136.807 189.138 133.69C187.935 130.59 186.319 127.665 184.333 124.992C181.318 120.698 177.971 116.644 174.323 112.867C173.721 112.139 172.949 111.57 172.074 111.209C171.631 111.038 171.142 111.029 170.693 111.183C170.245 111.338 169.866 111.645 169.624 112.051" fill="#36383F"/>
</g>
<g opacity="0.3">
<path opacity="0.3" d="M145.82 133.517C146.598 130.454 147.381 127.392 148.169 124.329C148.294 123.71 148.508 123.112 148.803 122.552C149.244 121.888 149.797 121.305 150.438 120.829C151.154 120.149 152.001 119.62 152.927 119.271C153.72 119.143 154.502 118.95 155.263 118.694C156.25 118.203 156.778 117.136 157.185 116.115C157.492 115.333 157.752 114.405 157.305 113.695C157.045 113.389 156.716 113.149 156.345 112.995C155.974 112.84 155.571 112.776 155.169 112.807C153.313 112.782 151.487 113.282 149.905 114.248C148.323 115.214 147.05 116.606 146.233 118.263C145.032 120.822 145.032 123.759 145.052 126.583L145.119 134.134" fill="#36383F"/>
</g>
<path d="M160.635 133.875C160.635 133.836 160.008 133.942 158.993 134.021C157.674 134.119 156.348 134.085 155.036 133.922C153.727 133.747 152.439 133.44 151.192 133.007C150.231 132.675 149.657 132.41 149.637 132.45C149.617 132.49 149.764 132.556 150.017 132.689C150.374 132.878 150.742 133.046 151.118 133.192C152.366 133.686 153.671 134.025 155.003 134.2C156.332 134.366 157.677 134.366 159.007 134.2C159.409 134.158 159.808 134.09 160.201 133.995C160.488 133.942 160.642 133.895 160.635 133.875Z" fill="#36383F"/>
<path d="M180.849 134.691C180.849 134.611 174.269 136.467 166.207 138.834C158.146 141.201 151.632 143.183 151.632 143.256C151.632 143.329 158.212 141.479 166.274 139.113C174.336 136.746 180.869 134.777 180.849 134.691Z" fill="#36383F"/>
<g opacity="0.3">
<path opacity="0.3" d="M150.298 132.768C150.666 133.736 151.298 134.582 152.123 135.213C152.948 135.844 153.933 136.235 154.969 136.341C156.019 136.453 157.08 136.278 158.037 135.835C158.994 135.392 159.812 134.699 160.402 133.829C156.997 134.332 153.521 133.967 150.298 132.768Z" fill="#36383F"/>
</g>
<g opacity="0.3">
<path opacity="0.3" d="M153.414 142.686L153.581 142.752C157.719 143.488 161.589 142.752 165.553 141.353C169.518 139.955 173.215 137.933 176.899 135.884L153.414 142.686Z" fill="#36383F"/>
</g>
<path d="M178.04 142.229C178.13 142.621 178.13 143.029 178.04 143.422C177.876 144.378 177.513 145.289 176.976 146.098C176.438 146.907 175.737 147.596 174.917 148.122C174.592 148.362 174.219 148.527 173.822 148.606C174.125 148.365 174.444 148.143 174.776 147.943C175.519 147.389 176.164 146.717 176.685 145.954C177.199 145.177 177.575 144.318 177.8 143.415C177.851 143.015 177.932 142.618 178.04 142.229Z" fill="#36383F"/>
<path d="M180.436 145.066C180.341 145.415 180.165 145.738 179.922 146.007C179.39 146.698 178.722 147.276 177.96 147.704C177.197 148.133 176.355 148.403 175.484 148.5C175.127 148.567 174.758 148.548 174.41 148.447C175.586 148.289 176.727 147.937 177.786 147.406C178.793 146.776 179.689 145.986 180.436 145.066Z" fill="#36383F"/>
<path d="M204.541 198.28C203.687 194.806 197.507 172.339 196.319 168.958L190.753 153.127L190.379 147.896L143.177 149.342C143.177 149.342 136.456 157.562 133.967 166.883C131.825 174.872 130.744 186.997 135.809 218.527C139.146 236.022 143.003 254.637 143.003 254.637H171.279L167.496 190.232L177.986 226.296L187.55 254.624L217.795 254.465L204.541 198.28Z" fill="#36383F"/>
<path d="M140.661 156.979C140.639 157.062 140.612 157.144 140.581 157.224C140.521 157.397 140.434 157.629 140.327 157.92C140.22 158.212 140.067 158.583 139.893 159.061C139.72 159.538 139.526 160.022 139.346 160.619C138.229 163.956 137.405 167.383 136.884 170.861C136.127 176.023 135.832 181.24 136.003 186.454C136.143 192.334 136.73 198.791 137.471 205.553C138.952 219.07 141.622 231.123 143.624 239.814C144.625 244.15 145.439 247.657 146 250.11C146.28 251.309 146.494 252.244 146.667 252.907L146.827 253.636C146.85 253.719 146.863 253.803 146.867 253.888C146.832 253.809 146.805 253.727 146.787 253.643L146.6 252.92C146.434 252.257 146.193 251.329 145.893 250.136C145.286 247.716 144.425 244.216 143.404 239.874C141.402 231.189 138.679 219.137 137.171 205.586C136.43 198.824 135.836 192.36 135.722 186.46C135.567 181.229 135.886 175.995 136.677 170.821C137.222 167.336 138.087 163.908 139.259 160.579C139.446 159.982 139.653 159.465 139.84 159.021L140.287 157.894L140.574 157.231C140.59 157.143 140.619 157.058 140.661 156.979Z" fill="#41D679"/>
<path d="M149.009 252.204C149.103 252.204 149.263 252.529 149.376 252.973C149.49 253.418 149.49 253.795 149.376 253.815C149.263 253.835 149.123 253.497 149.016 253.053C148.909 252.609 148.916 252.231 149.009 252.204Z" fill="#41D679"/>
<path d="M147.474 245.814C147.949 246.817 148.208 247.908 148.235 249.016C147.763 248.012 147.504 246.922 147.474 245.814Z" fill="#41D679"/>
<path d="M145.973 239.436C146.258 239.914 146.442 240.444 146.513 240.994C146.694 241.522 146.762 242.082 146.714 242.638C146.428 242.158 146.244 241.626 146.173 241.074C145.992 240.548 145.924 239.99 145.973 239.436Z" fill="#41D679"/>
<path d="M144.538 232.999C144.817 233.48 144.995 234.012 145.059 234.563C145.236 235.092 145.3 235.652 145.246 236.207C144.965 235.724 144.786 235.19 144.718 234.636C144.546 234.109 144.484 233.551 144.538 232.999Z" fill="#41D679"/>
<path d="M143.197 226.562C143.471 227.048 143.642 227.585 143.697 228.139C143.866 228.67 143.918 229.231 143.851 229.783C143.408 228.766 143.181 227.67 143.184 226.562H143.197Z" fill="#41D679"/>
<path d="M141.982 220.104C142.249 220.594 142.408 221.134 142.449 221.689C142.602 222.225 142.645 222.787 142.576 223.34C142.153 222.314 141.951 221.212 141.982 220.104Z" fill="#41D679"/>
<path d="M140.954 213.621C141.353 214.656 141.526 215.763 141.462 216.869C141.063 215.834 140.89 214.727 140.954 213.621Z" fill="#41D679"/>
<path d="M140.053 207.117C140.421 208.161 140.563 209.271 140.467 210.372C140.23 209.87 140.101 209.323 140.087 208.768C139.963 208.226 139.952 207.664 140.053 207.117Z" fill="#41D679"/>
<path d="M139.359 200.587C139.701 201.639 139.815 202.751 139.693 203.849C139.47 203.341 139.354 202.793 139.353 202.238C139.245 201.693 139.247 201.132 139.359 200.587Z" fill="#41D679"/>
<path d="M138.792 194.044C139.114 195.105 139.202 196.222 139.052 197.319C138.845 196.803 138.743 196.251 138.752 195.695C138.649 195.148 138.663 194.586 138.792 194.044Z" fill="#41D679"/>
<path d="M138.439 187.488C138.721 188.559 138.768 189.678 138.579 190.769C138.39 190.245 138.309 189.688 138.338 189.132C138.259 188.583 138.293 188.023 138.439 187.488Z" fill="#41D679"/>
<path d="M138.418 180.918C138.585 181.449 138.637 182.009 138.572 182.562C138.627 183.115 138.561 183.674 138.378 184.199C138.217 183.669 138.165 183.112 138.225 182.562C138.179 182.006 138.245 181.448 138.418 180.918Z" fill="#41D679"/>
<path d="M138.846 174.368C138.975 174.91 138.989 175.472 138.886 176.019C138.891 176.574 138.784 177.124 138.572 177.636C138.442 177.095 138.431 176.532 138.539 175.986C138.528 175.431 138.632 174.881 138.846 174.368Z" fill="#41D679"/>
<path d="M139.847 167.878C139.92 168.428 139.879 168.988 139.726 169.522C139.686 170.076 139.529 170.616 139.266 171.106C139.193 170.556 139.234 169.996 139.386 169.462C139.428 168.908 139.585 168.369 139.847 167.878Z" fill="#41D679"/>
<path d="M141.508 161.52C141.429 162.625 141.115 163.7 140.587 164.676C140.572 164.12 140.672 163.567 140.881 163.051C140.98 162.503 141.194 161.981 141.508 161.52Z" fill="#41D679"/>
<path d="M143.23 156.913C143.317 156.946 143.23 157.317 143.077 157.741C142.923 158.165 142.696 158.477 142.603 158.444C142.509 158.411 142.603 158.04 142.756 157.615C142.91 157.191 143.143 156.873 143.23 156.913Z" fill="#41D679"/>
<path d="M170.565 193.726C170.479 193.772 170.005 193.196 169.504 192.433C169.152 191.994 168.894 191.489 168.743 190.948C168.817 190.889 169.291 191.472 169.798 192.241C170.151 192.68 170.412 193.185 170.565 193.726Z" fill="#41D679"/>
<path d="M173.428 199.706C173.062 199.28 172.783 198.786 172.608 198.254C172.336 197.762 172.168 197.221 172.114 196.663C172.48 197.088 172.757 197.581 172.928 198.115C173.205 198.605 173.375 199.147 173.428 199.706Z" fill="#41D679"/>
<path d="M175.584 205.977C175.256 205.521 175.029 205.002 174.917 204.452C174.691 203.938 174.575 203.383 174.576 202.822C174.901 203.28 175.128 203.798 175.244 204.346C175.469 204.861 175.585 205.416 175.584 205.977Z" fill="#41D679"/>
<path d="M177.466 212.342C176.936 211.357 176.618 210.273 176.532 209.159C176.849 209.625 177.065 210.151 177.166 210.704C177.371 211.226 177.473 211.782 177.466 212.342Z" fill="#41D679"/>
<path d="M179.321 218.712C179.008 218.245 178.793 217.72 178.687 217.168C178.478 216.645 178.378 216.086 178.394 215.524C178.706 215.991 178.92 216.516 179.021 217.068C179.234 217.59 179.337 218.15 179.321 218.712Z" fill="#41D679"/>
<path d="M181.183 225.077C180.865 224.612 180.649 224.085 180.549 223.532C180.343 223.011 180.241 222.455 180.249 221.895C180.567 222.36 180.783 222.886 180.883 223.439C181.089 223.961 181.191 224.517 181.183 225.077Z" fill="#41D679"/>
<path d="M183.038 231.481C182.725 231.013 182.51 230.488 182.404 229.936C182.195 229.414 182.095 228.854 182.111 228.292C182.424 228.76 182.639 229.285 182.745 229.837C182.954 230.359 183.054 230.919 183.038 231.481Z" fill="#41D679"/>
<path d="M184.9 237.812C184.571 237.349 184.343 236.823 184.233 236.267C184.027 235.746 183.925 235.19 183.933 234.63C184.251 235.095 184.467 235.621 184.567 236.174C184.784 236.693 184.897 237.25 184.9 237.812Z" fill="#41D679"/>
<path d="M186.756 244.176C186.23 243.19 185.914 242.107 185.828 240.994C186.36 241.978 186.676 243.062 186.756 244.176Z" fill="#41D679"/>
<path d="M188.618 250.547C188.3 250.082 188.084 249.556 187.984 249.002C187.777 248.49 187.671 247.943 187.67 247.391C187.999 247.852 188.226 248.376 188.337 248.929C188.537 249.445 188.632 249.995 188.618 250.547Z" fill="#41D679"/>
<path d="M189.899 254.936C189.806 254.936 189.652 254.71 189.552 254.379C189.452 254.047 189.452 253.755 189.552 253.716C189.652 253.676 189.799 253.934 189.892 254.273C189.986 254.611 189.986 254.909 189.899 254.936Z" fill="#41D679"/>
<path d="M172.254 148.778C172.285 148.904 172.301 149.033 172.301 149.163C172.301 149.455 172.301 149.826 172.361 150.27C172.407 151.231 172.454 152.617 172.467 154.34C172.514 157.774 172.427 162.528 172.06 167.758C171.653 173.805 170.893 179.174 170.319 182.549V182.635H170.232L167.182 182.701H166.381C166.288 182.714 166.194 182.714 166.101 182.701C166.192 182.675 166.286 182.662 166.381 182.661L167.189 182.602L170.232 182.436L170.125 182.529C170.599 179.148 171.286 173.798 171.713 167.752C172.08 162.528 172.207 157.808 172.221 154.354C172.221 152.67 172.221 151.291 172.221 150.283V149.176C172.215 149.043 172.226 148.909 172.254 148.778Z" fill="#41D679"/>
<path d="M166.668 150.82C166.668 150.82 166.575 150.939 166.441 151.145C166.253 151.44 166.154 151.783 166.154 152.133C166.152 152.381 166.201 152.628 166.3 152.856C166.399 153.084 166.545 153.29 166.728 153.459C166.976 153.63 167.266 153.732 167.567 153.753C167.869 153.774 168.17 153.713 168.44 153.576C168.709 153.44 168.936 153.234 169.096 152.98C169.257 152.726 169.345 152.433 169.351 152.133C169.298 151.707 169.098 151.314 168.785 151.019C168.472 150.724 168.066 150.546 167.636 150.515C167.389 150.515 167.242 150.515 167.235 150.515C167.229 150.515 167.362 150.422 167.636 150.389C168.028 150.366 168.417 150.471 168.744 150.687C168.995 150.843 169.209 151.052 169.37 151.3C169.53 151.547 169.633 151.827 169.671 152.119C169.674 152.484 169.574 152.842 169.383 153.152C169.191 153.463 168.916 153.715 168.589 153.879C168.262 154.043 167.894 154.113 167.529 154.081C167.164 154.049 166.815 153.916 166.521 153.697C166.307 153.494 166.14 153.246 166.034 152.97C165.928 152.695 165.885 152.4 165.907 152.106C165.93 151.717 166.077 151.345 166.328 151.045C166.515 150.86 166.661 150.807 166.668 150.82Z" fill="#41D679"/>
<path d="M157.225 150.535C157.234 150.794 157.207 151.053 157.145 151.304C157.014 151.998 156.822 152.679 156.571 153.339C155.748 155.534 154.36 157.477 152.547 158.974C150.733 160.471 148.556 161.47 146.233 161.871C145.536 162.002 144.827 162.066 144.118 162.064C143.858 162.081 143.598 162.063 143.344 162.011C143.344 161.944 144.458 162.011 146.187 161.633C148.444 161.177 150.553 160.173 152.325 158.711C154.098 157.249 155.478 155.374 156.344 153.253C157.011 151.622 157.158 150.522 157.225 150.535Z" fill="#41D679"/>
<path d="M194.123 163.051C193.876 162.991 193.638 162.897 193.416 162.773C192.802 162.458 192.213 162.096 191.654 161.692C189.858 160.31 188.241 158.711 186.842 156.932C185.349 155.236 183.976 153.44 182.731 151.556C182.369 150.975 182.041 150.373 181.75 149.753C181.631 149.531 181.541 149.295 181.484 149.05C181.537 149.05 181.977 149.998 182.938 151.423C184.234 153.263 185.626 155.033 187.109 156.727C188.491 158.483 190.057 160.087 191.781 161.513C193.162 162.534 194.15 162.998 194.123 163.051Z" fill="#41D679"/>
<path d="M165.927 236.513C165.707 236.55 165.483 236.563 165.26 236.552C164.654 236.55 164.048 236.517 163.445 236.453C161.446 236.256 159.479 235.81 157.592 235.127C155.706 234.443 153.913 233.53 152.253 232.409C151.749 232.07 151.263 231.705 150.798 231.315C150.471 231.037 150.304 230.878 150.318 230.858C150.331 230.838 151.098 231.395 152.386 232.184C155.753 234.293 159.535 235.663 163.478 236.201C164.98 236.42 165.927 236.453 165.927 236.513Z" fill="#41D679"/>
<path d="M204.134 232.038C203.86 232.688 203.525 233.312 203.133 233.9C202.465 235.021 201.484 236.552 200.31 238.143C199.135 239.734 197.987 241.146 197.12 242.121C196.681 242.671 196.19 243.178 195.652 243.633C196.037 243.045 196.466 242.487 196.933 241.962C197.747 240.948 198.862 239.542 200.03 237.938C201.197 236.333 202.205 234.855 202.926 233.768C203.286 233.163 203.689 232.584 204.134 232.038Z" fill="#41D679"/>
<path d="M174.443 115.611C174.443 115.611 188.591 146.902 196.813 147.863C200.957 148.347 203.487 146.093 204.374 141.824C205.262 137.555 202.299 109.572 202.299 109.572L188.064 113.477L189.145 118.899L180.623 110.493L174.443 115.611Z" fill="#DE9755"/>
<path d="M187.283 90.6646C187.283 90.6646 195.245 91.4204 198.208 97.904C201.171 104.388 205.282 111.693 205.282 111.693L187.77 115.611C187.77 115.611 185.321 102.525 185.134 97.904C184.927 92.8457 184.4 90.5188 187.283 90.6646Z" fill="#41D679"/>
<path d="M201.278 130.826C201.218 130.747 201.151 130.674 201.077 130.607L200.477 130.017L198.241 127.856C196.352 126.033 193.756 123.507 190.9 120.696C188.044 117.885 185.528 115.346 183.666 113.476L181.47 111.282L180.869 110.692C180.729 110.559 180.649 110.487 180.643 110.5C180.691 110.583 180.752 110.659 180.823 110.725L181.39 111.388C181.884 111.932 182.611 112.714 183.519 113.649C185.334 115.545 187.877 118.13 190.733 120.941C193.589 123.752 196.199 126.245 198.121 128.048C199.082 128.943 199.869 129.659 200.417 130.143L201.084 130.693C201.144 130.743 201.209 130.788 201.278 130.826Z" fill="#9F4F36"/>
<path d="M161.937 91.3076L167.469 93.4489C167.469 93.4489 170.512 93.4489 170.906 94.45L171.693 96.399C171.693 96.399 173.555 96.8697 173.949 97.9039C174.343 98.9381 177.58 105.959 177.58 105.959L180.623 110.493L174.443 115.611C173.702 114.661 172.843 113.808 171.887 113.072C170.612 112.197 165.313 107.769 165.213 106.575C165.113 105.382 162.25 98.6199 162.217 97.9039C162.183 97.1879 162.11 95.6234 162.831 96.0145C163.552 96.4057 164.526 98.3547 164.526 98.3547L163.859 95.7029C163.373 95.3619 162.96 94.9285 162.643 94.4278C162.327 93.9271 162.114 93.369 162.017 92.786L161.937 91.3076Z" fill="#DE9755"/>
<path d="M173.562 107.185C173.398 106.899 173.208 106.628 172.995 106.376L171.366 104.275L171.333 104.235H171.279H169.171H169.09L169.05 104.308C168.845 104.753 168.494 105.117 168.056 105.342C167.807 105.416 167.548 105.449 167.289 105.442C167.013 105.458 166.737 105.458 166.461 105.442L166.568 105.64L166.942 104.891L168.276 102.2L168.156 102.273L171.887 102.24H171.84L173.902 103.194C174.154 103.32 174.415 103.426 174.683 103.512C174.453 103.352 174.21 103.212 173.956 103.095L171.953 102.054H168.223H168.143L168.103 102.127L166.768 104.779L166.394 105.528L166.301 105.707H166.501C166.792 105.73 167.084 105.73 167.375 105.707H167.802C167.954 105.7 168.103 105.666 168.243 105.607C168.742 105.353 169.138 104.937 169.364 104.427L169.251 104.5H171.36L171.273 104.46L172.975 106.509C173.154 106.748 173.35 106.974 173.562 107.185Z" fill="#9F4F36"/>
<path d="M171.693 98.7856C171.391 98.741 171.085 98.721 170.779 98.726L168.303 98.6796H167.876L168.256 98.8851C168.839 99.1728 169.382 99.5338 169.872 99.9591C169.992 100.078 170.078 100.218 170.032 100.304C169.944 100.44 169.819 100.548 169.671 100.615C169.334 100.799 168.975 100.942 168.604 101.04H168.644C167.907 100.972 167.194 100.746 166.555 100.377C166.301 100.182 166.097 99.9299 165.959 99.642C165.821 99.3541 165.753 99.0381 165.761 98.7193C165.707 98.0978 165.732 97.472 165.834 96.8565L165.714 96.9625L170.025 96.6244L171.253 96.5051C171.403 96.5025 171.551 96.478 171.693 96.4322C171.545 96.4165 171.395 96.4165 171.246 96.4322L170.018 96.4786L165.7 96.7106H165.594V96.8101C165.479 97.4464 165.445 98.0946 165.494 98.7392C165.521 99.0884 165.598 99.432 165.72 99.7602C165.847 100.121 166.098 100.426 166.428 100.622C167.108 101.023 167.869 101.268 168.657 101.338H168.697C169.088 101.229 169.465 101.073 169.818 100.874C170.017 100.781 170.179 100.625 170.279 100.43C170.308 100.372 170.324 100.309 170.324 100.244C170.324 100.18 170.308 100.116 170.279 100.058C170.227 99.9711 170.164 99.8908 170.092 99.8198C169.578 99.3811 169.005 99.0152 168.39 98.7326L168.343 98.9315L170.819 98.8851C171.113 98.8747 171.405 98.8415 171.693 98.7856Z" fill="#9F4F36"/>
<path d="M180.623 110.493L180.583 110.407L180.436 110.175L179.862 109.28L177.659 105.912C177.066 104.586 176.365 103.008 175.577 101.225C175.177 100.341 174.756 99.3998 174.316 98.401C174.196 98.149 174.102 97.9236 173.962 97.6386C173.807 97.377 173.598 97.151 173.348 96.9756C172.853 96.6418 172.305 96.393 171.727 96.2398L171.813 96.3127L171.3 95.0332L171.039 94.3703C170.916 94.126 170.714 93.9299 170.465 93.8134C170.004 93.6023 169.514 93.4616 169.01 93.3957C168.504 93.3211 167.994 93.2768 167.482 93.2631H167.529L161.99 91.1152L161.79 91.0356V91.2544C161.79 91.7649 161.83 92.2754 161.87 92.8322C161.959 93.3894 162.158 93.9234 162.457 94.4034C162.808 94.9445 163.261 95.4128 163.792 95.7823L163.725 95.6961C163.958 96.5911 164.185 97.4728 164.392 98.3479L164.653 98.2485C164.43 97.8161 164.185 97.3957 163.918 96.9889C163.665 96.5636 163.334 96.1883 162.944 95.8818C162.88 95.8348 162.805 95.8032 162.727 95.7894C162.648 95.7756 162.567 95.78 162.49 95.8022C162.42 95.8347 162.358 95.8817 162.307 95.9399C162.256 95.9982 162.219 96.0665 162.197 96.1403C162.12 96.3763 162.078 96.6218 162.07 96.8696C162.07 97.1038 162.07 97.3358 162.07 97.5657C162.07 97.685 162.07 97.7911 162.07 97.917C162.09 98.0361 162.119 98.1535 162.157 98.2684C162.724 100.005 163.398 101.583 163.965 103.148C164.252 103.923 164.532 104.672 164.779 105.408C164.903 105.761 165.001 106.122 165.073 106.489C165.162 106.87 165.345 107.224 165.607 107.516C166.485 108.546 167.445 109.503 168.477 110.38C169.404 111.196 170.265 111.905 171.033 112.502C171.42 112.8 171.8 113.059 172.127 113.304C172.427 113.531 172.712 113.777 172.981 114.04C173.468 114.511 173.822 114.902 174.056 115.167L174.323 115.472L174.423 115.571C174.4 115.529 174.373 115.489 174.343 115.452C174.283 115.366 174.196 115.266 174.096 115.134C173.771 114.726 173.423 114.336 173.055 113.967C172.785 113.697 172.499 113.442 172.2 113.205C171.867 112.946 171.533 112.694 171.126 112.389C170.365 111.779 169.518 111.063 168.603 110.248C167.592 109.364 166.648 108.407 165.78 107.384C165.55 107.121 165.385 106.807 165.3 106.469C165.227 106.084 165.127 105.706 165 105.335C164.759 104.593 164.486 103.837 164.199 103.061C163.645 101.543 162.977 99.939 162.437 98.2286C162.401 98.1299 162.377 98.0276 162.363 97.9236C162.357 97.8133 162.357 97.7026 162.363 97.5922C162.363 97.3668 162.363 97.1414 162.363 96.9292C162.363 96.5182 162.477 95.8818 162.817 96.1602C163.174 96.4462 163.474 96.7944 163.705 97.1878C163.967 97.5843 164.206 97.996 164.419 98.4209L164.98 99.5545L164.659 98.328C164.439 97.4728 164.212 96.5911 163.992 95.6763V95.6299L163.938 95.5901C163.455 95.2424 163.042 94.8059 162.724 94.304C162.446 93.8588 162.26 93.363 162.177 92.8455C162.143 92.335 162.123 91.798 162.103 91.2942L161.91 91.4268L167.449 93.5681H167.496C168.476 93.5526 169.451 93.7259 170.365 94.0786C170.558 94.1647 170.718 94.3114 170.819 94.4962C170.906 94.7216 170.999 94.9404 171.086 95.1592L171.6 96.432V96.4917H171.66C172.207 96.6254 172.729 96.8495 173.201 97.1546C173.422 97.3039 173.61 97.4955 173.755 97.7181C173.862 97.9303 173.982 98.2087 174.089 98.4474L175.377 101.265C176.185 103.042 176.905 104.613 177.506 105.939L179.782 109.253C180.042 109.625 180.249 109.916 180.396 110.128L180.556 110.347L180.623 110.493Z" fill="#9F4F36"/>
<path d="M189.005 118.78C188.905 117.335 188.715 115.899 188.437 114.477C188.247 113.04 187.966 111.617 187.597 110.215C187.688 111.662 187.875 113.101 188.157 114.524C188.347 115.959 188.63 117.381 189.005 118.78Z" fill="#36383F"/>
<path d="M149.323 90.85L151.052 112.495C151.063 112.681 151.11 112.862 151.192 113.029C151.274 113.197 151.388 113.346 151.529 113.469C151.669 113.592 151.832 113.687 152.009 113.747C152.186 113.808 152.373 113.833 152.56 113.821L164.706 113.039C164.896 113.027 165.082 112.978 165.252 112.894C165.423 112.81 165.575 112.692 165.699 112.549C165.824 112.406 165.918 112.239 165.977 112.059C166.035 111.879 166.057 111.689 166.041 111.501L164.039 89.8755C164.006 89.5079 163.83 89.1674 163.548 88.927C163.266 88.6867 162.901 88.5655 162.53 88.5894L150.645 89.3584C150.272 89.3856 149.924 89.5571 149.677 89.8361C149.43 90.115 149.303 90.479 149.323 90.85Z" fill="#36383F"/>
<path d="M131.945 118.409C131.945 118.409 128.321 142.759 128.461 146.027C128.602 149.295 132.325 156.555 137.337 157.264C142.349 157.973 147.074 153.425 147.221 147.452C147.368 141.479 148.109 122.579 148.109 122.579L144.365 120.53L131.945 118.409Z" fill="#DE9755"/>
<path d="M140.874 119.841C140.82 119.919 140.775 120.004 140.741 120.093C140.654 120.292 140.554 120.53 140.421 120.822C140.154 121.485 139.753 122.38 139.226 123.507C138.198 125.768 136.65 128.81 135.055 132.271C133.673 135.195 132.522 138.22 131.611 141.32C131.431 141.917 131.318 142.467 131.198 142.944C131.077 143.422 130.997 143.846 130.937 144.184C130.877 144.522 130.837 144.761 130.804 144.973C130.77 145.185 130.764 145.252 130.804 145.252C130.839 145.166 130.866 145.077 130.884 144.986C130.937 144.774 130.997 144.522 131.071 144.211C131.144 143.899 131.238 143.455 131.378 142.984C131.518 142.514 131.638 141.963 131.832 141.373C132.803 138.296 133.985 135.288 135.369 132.37C136.964 128.936 138.479 125.854 139.466 123.573C139.96 122.433 140.34 121.498 140.581 120.848L140.848 120.093C140.865 120.01 140.874 119.925 140.874 119.841Z" fill="#9F4F36"/>
<path d="M152.6 98.2883C152.6 98.2883 148.843 100.582 147.735 101.179C146.627 101.775 146.767 106.224 146.767 106.224L140.454 120.809L148.069 123.52C148.069 123.52 150.778 118.415 151.559 117.772C152.101 117.356 152.72 117.05 153.381 116.871C153.381 116.871 153.768 118.289 154.942 117.646C155.868 117.037 156.699 116.298 157.412 115.452C157.412 115.452 158.446 116.115 158.84 115.319C159.234 114.524 159.881 112.866 159.881 112.866C159.881 112.866 157.665 110.029 156.758 110.029C155.85 110.029 151.172 110.288 151.172 110.288C151.606 109.857 152.143 109.545 152.733 109.379C154.028 108.862 161.77 106.602 162.13 106.462C162.677 106.257 163.291 104.845 161.603 104.712C159.914 104.58 150.391 106.27 150.391 106.27C150.391 106.27 149.871 103.831 150.264 103.313C150.658 102.796 154.028 100.609 152.6 98.2883Z" fill="#DE9755"/>
<path d="M157.418 115.339C157.488 114.988 157.476 114.625 157.385 114.279C157.314 113.878 157.115 113.511 156.818 113.231C156.412 112.937 155.918 112.79 155.416 112.814C154.563 112.758 153.707 112.789 152.86 112.906C152.504 112.925 152.154 113.006 151.826 113.145C151.826 113.231 153.434 112.966 155.403 113.092C155.842 113.072 156.277 113.19 156.644 113.43C156.912 113.668 157.103 113.979 157.192 114.325C157.248 114.667 157.324 115.006 157.418 115.339Z" fill="#9F4F36"/>
<path d="M155.91 115.803C155.863 115.744 155.243 116.141 154.449 116.466C153.939 116.636 153.44 116.836 152.954 117.063C153.512 117.103 154.07 116.983 154.562 116.718C155.091 116.549 155.559 116.231 155.91 115.803Z" fill="#9F4F36"/>
<path d="M150.825 106.224C150.317 106.302 149.847 106.535 149.479 106.892C149.112 107.249 148.866 107.71 148.776 108.213C148.849 108.213 149.11 107.643 149.683 107.106C150.257 106.569 150.851 106.303 150.825 106.224Z" fill="#9F4F36"/>
<path d="M150.694 66.0716C150.689 66.3534 150.797 66.6259 150.994 66.8302C151.191 67.0345 151.462 67.1543 151.748 67.1636C151.888 67.1747 152.029 67.1582 152.162 67.1151C152.295 67.0721 152.418 67.0034 152.524 66.913C152.629 66.8226 152.716 66.7124 152.778 66.5888C152.84 66.4651 152.876 66.3305 152.885 66.1929C152.888 65.9105 152.779 65.6382 152.581 65.4336C152.383 65.2289 152.113 65.108 151.826 65.0963C151.686 65.0853 151.546 65.102 151.413 65.1453C151.28 65.1887 151.157 65.2579 151.051 65.3488C150.946 65.4397 150.86 65.5505 150.798 65.6746C150.737 65.7987 150.702 65.9337 150.694 66.0716Z" fill="#36383F"/>
<path d="M149.909 62.0719C150.046 62.2112 150.881 61.6224 152.059 61.6224C153.236 61.6224 154.108 62.2112 154.236 62.0719C154.3 62.009 154.158 61.7528 153.78 61.4831C153.271 61.1311 152.663 60.9441 152.041 60.9483C151.425 60.9462 150.825 61.1349 150.324 61.4876C149.968 61.7528 149.845 62.009 149.909 62.0719Z" fill="#36383F"/>
<path d="M160.946 66.0716C160.942 66.3531 161.05 66.6249 161.247 66.8289C161.444 67.033 161.714 67.1531 162 67.1637C162.14 67.1753 162.28 67.1592 162.414 67.1164C162.547 67.0736 162.67 67.005 162.776 66.9145C162.882 66.824 162.969 66.7135 163.03 66.5896C163.092 66.4656 163.128 66.3308 163.136 66.1929C163.139 65.9113 163.031 65.6396 162.834 65.4351C162.637 65.2305 162.368 65.1091 162.082 65.0963C161.942 65.0853 161.801 65.1019 161.668 65.1453C161.535 65.1886 161.411 65.2577 161.305 65.3485C161.2 65.4394 161.113 65.5501 161.051 65.6743C160.99 65.7984 160.954 65.9335 160.946 66.0716Z" fill="#36383F"/>
<path d="M161.133 62.0719C161.27 62.2112 162.105 61.6224 163.282 61.6224C164.46 61.6224 165.332 62.2112 165.46 62.0719C165.519 62.0089 165.387 61.7528 165.003 61.4831C164.492 61.131 163.883 60.9441 163.26 60.9483C162.646 60.9468 162.047 61.1355 161.548 61.4876C161.192 61.7528 161.064 62.0089 161.133 62.0719Z" fill="#36383F"/>
<path d="M157.454 71.2085C157.454 71.1456 156.724 71.0153 155.532 70.8625C155.231 70.831 154.948 70.7726 154.898 70.5703C154.867 70.2574 154.938 69.9429 155.099 69.6715L156.012 67.4244C157.258 64.2065 158.161 61.5819 158.029 61.5145C157.897 61.4471 156.778 64.0357 155.532 67.2536L154.67 69.5277C154.48 69.8854 154.425 70.2978 154.514 70.6917C154.556 70.7987 154.622 70.8948 154.708 70.9728C154.793 71.0507 154.896 71.1082 155.007 71.1411C155.174 71.1862 155.346 71.2104 155.519 71.213C156.692 71.2849 157.454 71.2849 157.454 71.2085Z" fill="#36383F"/>
<path d="M156.395 73.9778C156.798 73.6405 157.282 73.4059 157.803 73.2945C158.323 73.1831 158.866 73.1982 159.384 73.3384C159.722 73.4338 160.031 73.6083 160.287 73.8467C160.542 74.0851 160.734 74.3801 160.848 74.706C160.973 75.0821 160.978 75.4849 160.863 75.8601C160.748 76.2353 160.518 76.5651 160.204 76.8052C159.89 77.0453 159.507 77.1843 159.106 77.2033C158.705 77.2224 158.306 77.1207 157.962 76.9119C157.276 76.5391 156.804 75.8856 156.363 75.2382C156.227 75.065 156.13 74.8658 156.079 74.6541C156.058 74.5387 156.068 74.4204 156.107 74.3107C156.146 74.201 156.214 74.1036 156.303 74.0278" fill="#9F4F36"/>
<path d="M160.628 72.8027C160.418 72.7345 160.043 74.1168 158.571 74.77C157.099 75.4231 155.643 74.8737 155.583 75.0641C155.526 75.1371 155.842 75.423 156.472 75.6104C157.292 75.8424 158.168 75.7831 158.946 75.4429C159.691 75.1157 160.277 74.5162 160.58 73.7707C160.787 73.2061 160.724 72.8196 160.628 72.8027Z" fill="#36383F"/>
<path d="M161.502 57.8652C161.616 58.1843 162.799 58.036 164.186 58.2022C165.574 58.3685 166.692 58.746 166.874 58.4629C166.957 58.3281 166.765 58.0135 166.313 57.7214C165.708 57.3433 165.024 57.1062 164.312 57.0283C163.6 56.9504 162.879 57.0338 162.205 57.2719C161.708 57.4697 161.452 57.7169 161.502 57.8652Z" fill="#36383F"/>
<path d="M150.297 58.5125C150.502 58.7776 151.319 58.5125 152.296 58.5125C153.273 58.5125 154.122 58.6922 154.295 58.4181C154.377 58.2832 154.25 58.0181 153.889 57.7664C153.406 57.4549 152.837 57.2979 152.26 57.317C151.685 57.3227 151.127 57.5085 150.667 57.8473C150.32 58.1125 150.206 58.3821 150.297 58.5125Z" fill="#36383F"/>
<path d="M67.6544 78.7404C69.3779 77.002 71.2617 75.3511 73.3058 73.7878C75.4002 72.22 77.6617 70.8157 80.0902 69.5749C82.5142 68.2834 85.1373 67.2291 87.9595 66.412C90.8275 65.5398 93.9495 64.9507 97.3254 64.6449C102.062 64.2159 106.376 64.4631 110.269 65.3865C114.212 66.3053 117.626 67.8336 120.51 69.9713C123.389 72.0584 125.684 74.7088 127.395 77.9226C129.152 81.0812 130.212 84.6857 130.575 88.7361C130.92 92.584 130.691 95.9735 129.887 98.9046C129.079 101.785 127.962 104.336 126.535 106.558C125.109 108.78 123.482 110.739 121.653 112.436C119.874 114.129 118.162 115.713 116.517 117.189C114.917 118.61 113.519 120.013 112.323 121.397C111.177 122.777 110.498 124.268 110.286 125.869L109.123 136.693L93.0999 138.145L90.3401 126.068C89.7144 123.624 89.7733 121.449 90.5167 119.544C91.2557 117.589 92.3403 115.806 93.7706 114.196C95.2467 112.531 96.9083 110.952 98.7553 109.457C100.598 107.912 102.307 106.303 103.884 104.629C105.457 102.904 106.738 101.053 107.729 99.0743C108.766 97.0408 109.166 94.7077 108.93 92.0749C108.657 89.0371 107.434 86.7234 105.259 85.134C103.131 83.4893 100.328 82.8244 96.8513 83.1394C94.1807 83.3813 91.9634 83.8628 90.1994 84.5841C88.4858 85.3008 87.0057 86.0729 85.7593 86.9003C84.5586 87.6726 83.5046 88.3806 82.5972 89.0243C81.6898 89.6679 80.7574 90.0331 79.8 90.1198C77.6333 90.3161 75.9369 89.5255 74.7107 87.748L67.6544 78.7404ZM89.5131 166.109C89.3496 164.286 89.5249 162.56 90.0391 160.931C90.6038 159.298 91.4133 157.846 92.4677 156.577C93.5726 155.303 94.9017 154.264 96.455 153.459C98.0039 152.605 99.7356 152.09 101.65 151.917C103.515 151.748 105.285 151.945 106.961 152.508C108.632 153.02 110.125 153.803 111.439 154.858C112.753 155.913 113.807 157.196 114.603 158.706C115.45 160.212 115.954 161.876 116.118 163.699C116.281 165.521 116.083 167.275 115.523 168.959C115.009 170.588 114.199 172.039 113.095 173.313C111.99 174.587 110.661 175.626 109.107 176.43C107.554 177.235 105.845 177.721 103.981 177.89C102.066 178.064 100.273 177.894 98.6014 177.382C96.9299 176.87 95.4373 176.086 94.1235 175.031C92.8601 173.972 91.8052 172.689 90.959 171.184C90.1586 169.623 89.6766 167.931 89.5131 166.109Z" fill="#535A64"/>
<path d="M62.9517 78.5051C64.6981 76.7899 66.6035 75.1644 68.6681 73.6286C70.7831 72.0889 73.063 70.7149 75.5077 69.5066C77.9486 68.2477 80.5854 67.2286 83.4181 66.4493C86.2974 65.6154 89.4269 65.0681 92.8067 64.8075C97.5484 64.4418 101.859 64.7466 105.739 65.722C109.67 66.6934 113.063 68.2672 115.918 70.4433C118.77 72.5686 121.03 75.2495 122.698 78.4859C124.412 81.6677 125.425 85.286 125.734 89.3409C126.029 93.1931 125.754 96.5792 124.912 99.4993C124.066 102.369 122.915 104.905 121.459 107.107C120.004 109.31 118.35 111.248 116.499 112.92C114.699 114.588 112.966 116.15 111.301 117.604C109.683 119.003 108.266 120.387 107.051 121.755C105.887 123.12 105.188 124.601 104.955 126.2L103.65 137.007L87.6086 138.244L85.0089 126.132C84.4156 123.679 84.5033 121.506 85.2719 119.611C86.0366 117.666 87.1447 115.898 88.5962 114.307C90.0942 112.662 91.7766 111.105 93.6432 109.635C95.506 108.115 97.2368 106.528 98.8358 104.875C100.431 103.172 101.737 101.338 102.754 99.3728C103.817 97.3534 104.248 95.0258 104.047 92.3901C103.815 89.3489 102.622 87.0191 100.469 85.4007C98.362 83.7278 95.5683 83.0255 92.0877 83.2939C89.4142 83.5001 87.1907 83.952 85.4173 84.6496C83.6944 85.3434 82.2042 86.0956 80.9469 86.9064C79.7361 87.6625 78.6728 88.3564 77.757 88.9878C76.8411 89.6193 75.904 89.972 74.9456 90.0459C72.7765 90.2132 71.0906 89.4 69.8881 87.6063L62.9517 78.5051ZM83.6519 166.158C83.5125 164.333 83.7107 162.61 84.2464 160.988C84.8326 159.362 85.6613 157.922 86.7325 156.666C87.8541 155.407 89.1968 154.386 90.7607 153.602C92.3207 152.768 94.0591 152.277 95.976 152.13C97.8424 151.986 99.6098 152.206 101.278 152.791C102.943 153.326 104.425 154.129 105.725 155.202C107.024 156.274 108.062 157.571 108.838 159.091C109.664 160.608 110.147 162.279 110.286 164.104C110.426 165.928 110.204 167.679 109.622 169.355C109.086 170.977 108.258 172.418 107.136 173.677C106.014 174.936 104.672 175.957 103.108 176.741C101.544 177.524 99.8287 177.988 97.9623 178.132C96.0454 178.279 94.2547 178.086 92.5901 177.552C90.9256 177.017 89.4435 176.214 88.1438 175.141C86.8945 174.065 85.8567 172.769 85.0305 171.252C84.2508 169.68 83.7913 167.982 83.6519 166.158Z" fill="#2BC866"/>
<path d="M9.96934e-07 251.948C43.4793 255.006 157.15 259.287 264 251.948L9.96934e-07 251.948Z" fill="#36383F"/>
<defs>
<linearGradient id="paint0_linear_203_7065" x1="102.796" y1="7.72998" x2="102.796" y2="245.973" gradientUnits="userSpaceOnUse">
<stop stop-color="#CBA8F2"/>
<stop offset="1" stop-color="#CBA8F2" stop-opacity="0"/>
</linearGradient>
</defs>
</svg>
